<svg viewBox="0 0 356.8 349.2" xmlns="http://www.w3.org/2000/svg" xmlns:xlink="http://www.w3.org/1999/xlink" id="Ebene_1" xml:space="preserve" overflow="hidden"><g><path d="M274.6 228.6C273.1 229.6 271.6 230.6 270 231.6 271.6 230.7 273.1 229.7 274.6 228.6Z" fill="#E3EE14"/><path d="M178 131.9C181.1 135 241 120 270.1 117.6 269.9 117.6 269.8 117.4 269.6 117.3L144.8 45.2C144.5 45 144 45 143.8 44.7 156.8 62.5 174.9 128.8 178 131.9Z" fill="#A09716"/><path d="M104.1 174.6C104.1 169.6 60.4 124.7 45.7 101.7 45.9 101.9 45.7 102.3 45.7 102.5L45.7 246.6C45.7 246.9 45.9 247.2 45.7 247.4 64.3 223.6 104.1 181 104.1 174.6Z" fill="#03DEFE"/><path d="M275.4 228.1C275.1 228.3 274.9 228.5 274.6 228.7 274.9 228.4 275.2 228.2 275.4 228.1Z" fill="#B4A2FF"/><path d="M178 217.2C178 217.2 140.8 281.3 144.7 304 144.7 303.9 144.8 303.9 144.9 303.9L269.7 231.8C269.9 231.7 270 231.5 270.1 231.5 245.5 225.2 178 217.2 178 217.2Z" fill="#B4A2FF"/></g><path d="M78.6 159.9 104 174.6 177.9 131.9 177.9 102.6C177.9 77.8 164 56.1 143.7 44.7 142.9 44.3 142.1 43.9 141.3 43.5 140.2 42.9 139.1 42.4 137.9 41.9 136.9 41.5 135.9 41.1 134.8 40.7 133.8 40.3 132.9 40 131.9 39.6 130.6 39.2 129.2 38.8 127.9 38.5 127.2 38.3 126.5 38.1 125.8 38 124.2 37.6 122.5 37.4 120.9 37.2 120.4 37.1 120 37 119.5 37 117.7 36.8 115.9 36.7 114.1 36.6 113.8 36.6 113.4 36.6 113.1 36.5 111.2 36.5 109.3 36.5 107.4 36.6 107.2 36.6 107 36.6 106.8 36.6 104.8 36.7 102.8 37 100.9 37.3 100.8 37.3 100.7 37.3 100.6 37.4 98.7 37.7 96.8 38.2 94.9 38.6 94.7 38.7 94.5 38.7 94.3 38.8 92.6 39.3 91 39.8 89.3 40.4 88.8 40.6 88.3 40.8 87.8 40.9 86.5 41.4 85.3 42 84 42.5 83.1 42.9 82.2 43.3 81.4 43.8 80.6 44.2 79.8 44.6 79.1 45.1 77.8 45.8 76.5 46.6 75.2 47.4 74.9 47.6 74.6 47.8 74.3 48 60.5 57.5 50.4 72.1 46.9 89 46.8 89.3 46.8 89.7 46.7 90 46.4 91.7 46.1 93.5 45.9 95.2 45.8 95.9 45.8 96.7 45.7 97.4 45.6 98.8 45.5 100.2 45.5 101.6 45.4 124.9 57.2 147.5 78.6 159.9Z" fill="#01CE15"/><path d="M301.7 185.6C301.7 185.5 301.7 185.4 301.8 185.3 302.1 183.6 302.3 181.8 302.4 180.1 302.4 179.5 302.5 178.9 302.5 178.2 302.6 177 302.6 175.8 302.6 174.6 302.6 173.4 302.6 172.2 302.5 171 302.5 170.4 302.4 169.7 302.4 169.1 302.2 167.4 302.1 165.6 301.8 163.9 301.8 163.8 301.8 163.7 301.7 163.5 299.2 148.9 291.9 135.3 280.5 125.1 280.4 125 280.3 125 280.3 124.9 278.8 123.6 277.2 122.3 275.5 121.1 275.2 120.8 274.8 120.6 274.4 120.4 273 119.4 271.6 118.5 270.1 117.6 250.2 105.9 224.7 104.9 203.4 117.2L178 131.9 178 217.2 203.5 231.9C224.8 244.2 250.2 243.2 270.1 231.5 271.7 230.6 273.2 229.6 274.7 228.5 275 228.3 275.3 228.1 275.5 227.9 289.8 217.6 298.9 202.2 301.7 185.6Z" fill="#E2ED15"/><path d="M178 246.7 178 217.3 104.1 174.6 78.7 189.3C57.3 201.7 45.4 224.4 45.7 247.5 45.7 248.8 45.8 250.1 45.9 251.5 46 252.3 46 253.2 46.1 254 46.3 255.5 46.5 257 46.8 258.5 46.9 259.1 47 259.8 47.1 260.4 47.5 262.1 47.9 263.8 48.4 265.4 48.5 265.8 48.6 266.2 48.7 266.6 49.3 268.4 49.9 270.1 50.6 271.8 50.7 272.1 50.8 272.3 50.9 272.6 51.6 274.3 52.5 276 53.4 277.7 53.5 277.9 53.6 278.2 53.8 278.4 54.7 280.1 55.7 281.7 56.8 283.3 56.9 283.5 57 283.7 57.2 283.8 58.3 285.4 59.5 286.9 60.7 288.4 60.8 288.6 60.9 288.7 61.1 288.9 62.3 290.3 63.5 291.7 64.8 293 65.1 293.3 65.3 293.5 65.6 293.8 66.7 294.9 67.9 296 69.1 297 69.6 297.5 70.2 297.9 70.7 298.4 71.6 299.1 72.5 299.8 73.5 300.5 74.5 301.2 75.5 301.9 76.5 302.6 77 302.9 77.5 303.2 78.1 303.6 79.7 304.5 81.2 305.4 82.8 306.2 82.8 306.2 82.9 306.2 82.9 306.2 102 315.4 125.1 315.4 144.8 304.2 164.5 292.5 178 271.1 178 246.7Z" fill="#008CFE"/></svg>