<svg width="64" height="64" viewBox="0 0 64 64" xmlns="http://www.w3.org/2000/svg" xmlns:xlink="http://www.w3.org/1999/xlink" overflow="hidden"><style>
.MsftOfcResponsive_Fill_df526c {
 fill:#DF526C; 
}
.MsftOfcThm_Text1_Stroke_v2 {
 stroke:#000000; 
}
</style>
<g id="Icon-Service/64/AWS-Config" fill="none" fill-rule="evenodd"><path d="M50.5407 39.0509 52.4216 39.7014 51.235 43.1298C51.0957 43.5336 50.7148 43.7982 50.2961 43.7982 50.2553 43.7982 50.2135 43.7962 50.1717 43.7912L46.3405 43.3138 46.5871 41.3395 48.7524 41.61C47.901 40.2683 46.2947 39.4308 44.3751 39.4308 41.8607 39.4308 39.955 40.8064 39.5203 42.9349L37.5719 42.537C38.2044 39.4418 40.875 37.4416 44.3751 37.4416 46.8288 37.4416 48.9066 38.481 50.1568 40.1619L50.5407 39.0509ZM49.2298 45.7894 51.1783 46.1893C50.5487 49.2627 47.8145 51.3275 44.3751 51.3275 42.1362 51.3275 40.1629 50.3627 38.8878 48.8151L38.6898 49.749 36.7434 49.3363 37.5321 45.6144C37.6445 45.0833 38.1557 44.7391 38.6968 44.8445L42.3142 45.5527 41.9323 47.5052 40.1091 47.1481C40.9824 48.4869 42.5609 49.3382 44.3751 49.3382 46.8815 49.3382 48.7872 47.9448 49.2298 45.7894L49.2298 45.7894ZM57.0108 46.0998 55.8142 46.0321C55.3318 46.0092 54.8952 46.3315 54.7878 46.8069 54.5242 47.9776 54.0647 49.0876 53.4212 50.1061 53.1616 50.5169 53.2372 51.056 53.5992 51.3792L54.4934 52.1759 52.1769 54.4934 51.3832 53.6042C51.0589 53.2401 50.5199 53.1656 50.1091 53.4251 49.0906 54.0687 47.9796 54.5292 46.8049 54.7947 46.3315 54.9022 46.0033 55.3358 46.0321 55.8212L46.0998 57.0108 42.8215 57.0108 42.8901 55.8202C42.918 55.3348 42.5907 54.9002 42.1163 54.7928 40.9456 54.5292 39.8336 54.0677 38.8142 53.4232 38.4034 53.1636 37.8643 53.2372 37.541 53.6022L36.7453 54.4934 34.4279 52.1759 35.3191 51.3812C35.6821 51.0579 35.7577 50.5199 35.4981 50.1091 34.8556 49.0896 34.397 47.9796 34.1325 46.8059 34.026 46.3305 33.5745 45.9993 33.106 46.0321L31.9115 46.0998 31.9115 42.8225 33.11 42.8901C33.5506 42.91 34.028 42.5917 34.1364 42.1173 34.401 40.9476 34.8615 39.8386 35.505 38.8211 35.7646 38.4093 35.6881 37.8713 35.326 37.548L34.4279 36.7463 36.7453 34.4279 37.547 35.325C37.8693 35.6891 38.4103 35.7627 38.8191 35.505 39.8356 34.8635 40.9456 34.405 42.1163 34.1404 42.5907 34.033 42.918 33.5984 42.8901 33.113L42.8215 31.9115 46.0998 31.9115 46.0321 33.115C46.0033 33.6003 46.3315 34.034 46.8049 34.1414 47.9746 34.406 49.0826 34.8655 50.0991 35.507 50.5079 35.7646 51.048 35.691 51.3722 35.328L52.1759 34.4279 54.4934 36.7463 53.5972 37.545C53.2352 37.8693 53.1596 38.4074 53.4192 38.8181 54.0617 39.8366 54.5222 40.9456 54.7868 42.1173 54.8942 42.5917 55.3547 42.91 55.8132 42.8901L57.0108 42.8225 57.0108 46.0998ZM58.6877 41.0461C58.4898 40.8581 58.2142 40.7586 57.9487 40.7755L56.5125 40.8581C56.2668 40.0365 55.9386 39.2428 55.5298 38.4879L56.604 37.5291C56.8079 37.3471 56.9282 37.0885 56.9362 36.815 56.9431 36.5424 56.8377 36.2769 56.6447 36.0839L52.8383 32.2765C52.6444 32.0835 52.3917 31.9712 52.1063 31.9861 51.8328 31.994 51.5751 32.1134 51.3921 32.3173L50.4303 33.3965C49.6764 32.9887 48.8847 32.6604 48.0641 32.4158L48.1457 30.9726C48.1606 30.7 48.0641 30.4325 47.8752 30.2336 47.6882 30.0346 47.4266 29.9222 47.1531 29.9222L41.7692 29.9222C41.4947 29.9222 41.2341 30.0346 41.0461 30.2336 40.8581 30.4325 40.7606 30.7 40.7765 30.9726L40.8581 32.4138C40.0355 32.6584 39.2448 32.9867 38.4899 33.3945L37.5291 32.3183C37.3471 32.1134 37.0895 31.994 36.815 31.9861 36.5375 31.9741 36.2779 32.0835 36.0839 32.2765L32.2765 36.0839C32.0826 36.2769 31.9771 36.5424 31.9851 36.815 31.993 37.0885 32.1134 37.3471 32.3173 37.5291L33.3945 38.4909C32.9857 39.2448 32.6574 40.0375 32.4108 40.8581L30.9726 40.7755C30.701 40.7576 30.4315 40.8581 30.2336 41.0461 30.0346 41.2341 29.9222 41.4957 29.9222 41.7692L29.9222 47.1531C29.9222 47.4256 30.0346 47.6882 30.2336 47.8762 30.4315 48.0641 30.702 48.1596 30.9726 48.1457L32.4058 48.0641C32.6515 48.8877 32.9797 49.6814 33.3885 50.4383L32.3173 51.3921C32.1134 51.5751 31.993 51.8328 31.9851 52.1063 31.9771 52.3798 32.0826 52.6444 32.2765 52.8383L36.0839 56.6447C36.2779 56.8387 36.5613 56.9451 36.815 56.9362 37.0895 56.9282 37.3471 56.8079 37.5291 56.604L38.4839 55.5337C39.2408 55.9435 40.0346 56.2727 40.8581 56.5184L40.7765 57.9487C40.7606 58.2222 40.8581 58.4898 41.0461 58.6887 41.2341 58.8876 41.4947 59 41.7692 59L47.1531 59C47.4266 59 47.6882 58.8876 47.8752 58.6887 48.0641 58.4898 48.1606 58.2222 48.1457 57.9487L48.0641 56.5204C48.8887 56.2747 49.6834 55.9455 50.4393 55.5357L51.3921 56.604C51.5742 56.8088 51.8328 56.9282 52.1063 56.9362 52.3947 56.9481 52.6444 56.8387 52.8383 56.6447L56.6447 52.8383C56.8377 52.6444 56.9431 52.3798 56.9362 52.1063 56.9282 51.8328 56.8079 51.5751 56.604 51.3931L55.5318 50.4363C55.9405 49.6804 56.2698 48.8867 56.5144 48.0641L57.9487 48.1457C58.2133 48.1586 58.4898 48.0631 58.6877 47.8762 58.8876 47.6882 59 47.4256 59 47.1531L59 41.7692C59 41.4957 58.8876 41.2341 58.6877 41.0461L58.6877 41.0461ZM6.98924 46.7741 26.8817 46.7741 26.8817 48.7634 5.99462 48.7634C5.4446 48.7634 5 48.3178 5 47.7687L5 5.99462C5 5.44559 5.4446 5 5.99462 5L51.7472 5C52.2972 5 52.7418 5.44559 52.7418 5.99462L52.7418 27.8763 50.7526 27.8763 50.7526 6.98924 6.98924 6.98924 6.98924 46.7741ZM39.8118 18.9247 38.8171 18.9247 38.8171 16.9355 39.8118 16.9355 43.7902 16.9355 44.7849 16.9355 44.7849 18.9247 43.7902 18.9247 39.8118 18.9247ZM40.8064 14.9462 42.7956 14.9462 42.7956 10.9677 40.8064 10.9677 40.8064 14.9462ZM44.7849 27.8763 44.7849 20.9139 45.7795 20.9139C46.3295 20.9139 46.7741 20.4684 46.7741 19.9193L46.7741 15.9408C46.7741 15.3918 46.3295 14.9462 45.7795 14.9462L44.7849 14.9462 44.7849 9.97311C44.7849 9.42408 44.3403 8.97849 43.7902 8.97849L39.8118 8.97849C39.2617 8.97849 38.8171 9.42408 38.8171 9.97311L38.8171 14.9462 37.8225 14.9462C37.2725 14.9462 36.8279 15.3918 36.8279 15.9408L36.8279 19.9193C36.8279 20.4684 37.2725 20.9139 37.8225 20.9139L38.8171 20.9139 38.8171 27.8763 40.8064 27.8763 40.8064 20.9139 42.7956 20.9139 42.7956 27.8763 44.7849 27.8763ZM25.8871 29.8655 24.8924 29.8655 24.8924 27.8763 25.8871 27.8763 29.8655 27.8763 30.8602 27.8763 30.8602 29.8655 29.8655 29.8655 25.8871 29.8655ZM26.8817 25.8871 28.8709 25.8871 28.8709 10.9677 26.8817 10.9677 26.8817 25.8871ZM30.8602 33.844 30.8602 31.8548 31.8548 31.8548C32.4048 31.8548 32.8494 31.4092 32.8494 30.8602L32.8494 26.8817C32.8494 26.3326 32.4048 25.8871 31.8548 25.8871L30.8602 25.8871 30.8602 9.97311C30.8602 9.42408 30.4156 8.97849 29.8655 8.97849L25.8871 8.97849C25.337 8.97849 24.8924 9.42408 24.8924 9.97311L24.8924 25.8871 23.8978 25.8871C23.3478 25.8871 22.9032 26.3326 22.9032 26.8817L22.9032 30.8602C22.9032 31.4092 23.3478 31.8548 23.8978 31.8548L24.8924 31.8548 24.8924 42.7956 26.8817 42.7956 26.8817 31.8548 28.8709 31.8548 28.8709 33.844 30.8602 33.844ZM10.9677 19.9193 11.9624 19.9193 15.9408 19.9193 16.9355 19.9193 16.9355 21.9086 15.9408 21.9086 11.9624 21.9086 10.9677 21.9086 10.9677 19.9193ZM12.957 17.9301 14.9462 17.9301 14.9462 10.9677 12.957 10.9677 12.957 17.9301ZM12.957 40.8064 14.9462 40.8064 14.9462 23.8978 12.957 23.8978 12.957 40.8064ZM11.9624 42.7956 15.9408 42.7956C16.4909 42.7956 16.9355 42.35 16.9355 41.801L16.9355 23.8978 17.9301 23.8978C18.4801 23.8978 18.9247 23.4522 18.9247 22.9032L18.9247 18.9247C18.9247 18.3757 18.4801 17.9301 17.9301 17.9301L16.9355 17.9301 16.9355 9.97311C16.9355 9.42408 16.4909 8.97849 15.9408 8.97849L11.9624 8.97849C11.4123 8.97849 10.9677 9.42408 10.9677 9.97311L10.9677 17.9301 9.97311 17.9301C9.42308 17.9301 8.97849 18.3757 8.97849 18.9247L8.97849 22.9032C8.97849 23.4522 9.42308 23.8978 9.97311 23.8978L10.9677 23.8978 10.9677 41.801C10.9677 42.35 11.4123 42.7956 11.9624 42.7956L11.9624 42.7956Z" id="AWS-Config_Icon_64_Squid" class="MsftOfcThm_Text1_Stroke_v2 MsftOfcResponsive_Fill_df526c" stroke="#000000" fill="#DF526C"/></g></svg>