<svg viewBox="0 0 360 360" xmlns="http://www.w3.org/2000/svg" xmlns:xlink="http://www.w3.org/1999/xlink" id="Layer_1" xml:space="preserve" overflow="hidden"><g><path d="M181.59 125.27C203.91 125.27 222.69 140.45 228.21 161.03 214.35 164.03 203.97 176.33 203.97 191.03L203.97 221.69C192.39 221.69 180.87 221.69 169.35 221.69L169.35 182.51C169.35 165.17 158.13 150.47 142.53 145.25 142.35 145.43 155.67 125.27 181.59 125.27" fill="#00ECD4" fill-rule="evenodd" clip-rule="evenodd"/><path d="M234.69 160.31C251.67 160.31 265.41 174.05 265.41 191.03 265.41 207.41 252.57 220.79 236.43 221.69 236.43 221.69 230.37 221.69 229.77 221.69 229.77 205.61 229.83 189.53 229.83 173.51 229.83 169.19 229.29 164.99 228.21 161.03 230.25 160.55 232.47 160.31 234.69 160.31" fill="#E3EE14" fill-rule="evenodd" clip-rule="evenodd"/><path d="M142.47 145.25C158.07 150.47 169.29 165.17 169.29 182.51L169.29 221.69 133.35 221.69C133.35 205.61 133.35 189.53 133.35 173.51 133.35 162.95 136.71 153.17 142.47 145.25" fill="#0096D4" fill-rule="evenodd" clip-rule="evenodd"/><path d="M142.47 145.25C136.71 153.17 133.35 162.95 133.35 173.51 133.35 189.59 133.35 205.61 133.35 221.69L169.29 221.69 130.05 221.75C108.39 221.75 90.81 204.17 90.81 182.51 90.81 155.57 117.33 136.91 142.47 145.25" fill="#B4A2FF" fill-rule="evenodd" clip-rule="evenodd"/><path d="M228.21 161.03C229.29 164.99 229.83 169.19 229.83 173.51 229.83 189.59 229.77 205.61 229.77 221.69L203.97 221.69 203.97 191.03 203.97 191.03C203.97 176.33 214.35 164.03 228.21 161.03" fill="#76CA48" fill-rule="evenodd" clip-rule="evenodd"/></g></svg>