<svg viewBox="0 0 96 96" xmlns="http://www.w3.org/2000/svg" xmlns:xlink="http://www.w3.org/1999/xlink" id="Icons_Building_M" overflow="hidden"><style>
.MsftOfcThm_Accent4_Fill_v2 {
 fill:#00DEFF; 
}
</style>
<g id="Icons"><path d="M69 85.977 69 16 64 16 64 10 32 10 32 16 27 16 27 85.977 20 85.977 20 87.977 76 87.977 76 85.977ZM34 12 62 12 62 16 34 16ZM29 18 67 18 67 85.977 50 85.977 50 75 46 75 46 85.977 29 85.977Z" class="MsftOfcThm_Accent4_Fill_v2" stroke-width="1.0001" fill="#00DEFF"/><rect x="36" y="45" width="4" height="6" class="MsftOfcThm_Accent4_Fill_v2" stroke-width="1.0001" fill="#00DEFF"/><rect x="36" y="35" width="4" height="6" class="MsftOfcThm_Accent4_Fill_v2" stroke-width="1.0001" fill="#00DEFF"/><rect x="36" y="55" width="4" height="6" class="MsftOfcThm_Accent4_Fill_v2" stroke-width="1.0001" fill="#00DEFF"/><rect x="36" y="65" width="4" height="6" class="MsftOfcThm_Accent4_Fill_v2" stroke-width="1.0001" fill="#00DEFF"/><rect x="46" y="45" width="4" height="6" class="MsftOfcThm_Accent4_Fill_v2" stroke-width="1.0001" fill="#00DEFF"/><rect x="46" y="65" width="4" height="6" class="MsftOfcThm_Accent4_Fill_v2" stroke-width="1.0001" fill="#00DEFF"/><rect x="56" y="75" width="4" height="6" class="MsftOfcThm_Accent4_Fill_v2" stroke-width="1.0001" fill="#00DEFF"/><rect x="56" y="25" width="4" height="6" class="MsftOfcThm_Accent4_Fill_v2" stroke-width="1.0001" fill="#00DEFF"/><rect x="46" y="55" width="4" height="6" class="MsftOfcThm_Accent4_Fill_v2" stroke-width="1.0001" fill="#00DEFF"/><rect x="46" y="35" width="4" height="6" class="MsftOfcThm_Accent4_Fill_v2" stroke-width="1.0001" fill="#00DEFF"/><rect x="46" y="25" width="4" height="6" class="MsftOfcThm_Accent4_Fill_v2" stroke-width="1.0001" fill="#00DEFF"/><rect x="36" y="25" width="4" height="6" class="MsftOfcThm_Accent4_Fill_v2" stroke-width="1.0001" fill="#00DEFF"/><rect x="36" y="75" width="4" height="6" class="MsftOfcThm_Accent4_Fill_v2" stroke-width="1.0001" fill="#00DEFF"/><rect x="56" y="45" width="4" height="6" class="MsftOfcThm_Accent4_Fill_v2" stroke-width="1.0001" fill="#00DEFF"/><rect x="56" y="55" width="4" height="6" class="MsftOfcThm_Accent4_Fill_v2" stroke-width="1.0001" fill="#00DEFF"/><rect x="56" y="65" width="4" height="6" class="MsftOfcThm_Accent4_Fill_v2" stroke-width="1.0001" fill="#00DEFF"/><rect x="56" y="35" width="4" height="6" class="MsftOfcThm_Accent4_Fill_v2" stroke-width="1.0001" fill="#00DEFF"/></g></svg>