<svg width="64" height="64" viewBox="0 0 64 64" xmlns="http://www.w3.org/2000/svg" xmlns:xlink="http://www.w3.org/1999/xlink" overflow="hidden"><g id="Icon-Service/64/AWS-Firewall-Manager" fill="none" fill-rule="evenodd"><path d="M55 32C53.346 32 52 30.654 52 29 52 27.346 53.346 26 55 26 56.654 26 58 27.346 58 29 58 30.654 56.654 32 55 32M60 29C60 26.243 57.757 24 55 24 54.91 24 54.826 24.022 54.736 24.026 54.181 22.607 53.507 21.247 52.714 19.975L51.017 21.033C51.704 22.135 52.298 23.31 52.793 24.536 51.146 25.355 50 27.039 50 29 50 31.547 51.922 33.632 54.388 33.938 54.206 38.526 52.698 42.871 49.966 46.551L51.571 47.743C54.594 43.674 56.241 38.858 56.394 33.778 58.47 33.169 60 31.27 60 29M48 18C46.346 18 45 16.654 45 15 45 13.346 46.346 12 48 12 49.654 12 51 13.346 51 15 51 16.654 49.654 18 48 18M53 15C53 12.243 50.757 10 48 10 45.243 10 43 12.243 43 15 43 17.757 45.243 20 48 20 50.757 20 53 17.757 53 15M19 11C19 9.346 20.346 8 22 8 23.654 8 25 9.346 25 11 25 12.654 23.654 14 22 14 20.346 14 19 12.654 19 11M27 11C27 8.243 24.757 6 22 6 19.243 6 17 8.243 17 11 17 13.757 19.243 16 22 16 24.757 16 27 13.757 27 11M28.228 10.473 27.927 8.496C33.209 7.694 38.68 8.652 43.317 11.149L42.368 12.91C38.11 10.616 33.084 9.736 28.228 10.473M12 28C12 29.654 10.654 31 9 31 7.346 31 6 29.654 6 28 6 26.346 7.346 25 9 25 10.654 25 12 26.346 12 28M17.343 15.262 16.091 13.702C12.994 16.185 10.551 19.389 8.956 23.004 6.22 23.028 4 25.258 4 28 4 29.983 5.17 31.686 6.848 32.493 6.844 32.667 6.828 32.838 6.828 33.013 6.828 40.186 9.94 47.008 15.367 51.73L16.68 50.221C11.69 45.879 8.828 39.607 8.828 33.013 8.828 33.003 8.829 32.993 8.829 32.983 8.887 32.985 8.941 33 9 33 11.757 33 14 30.757 14 28 14 25.939 12.746 24.167 10.961 23.403 12.428 20.247 14.612 17.451 17.343 15.262M43.576 48.623C41.946 54.91 34.113 56.55 31.699 56.911 31.103 54.887 29.749 48.935 32.391 43.248 32.558 42.895 32.733 42.542 32.929 42.192 34.435 39.5 35.649 36.986 35.253 33.489 35.058 31.762 33.965 29.306 32.921 27.281 35.748 29.709 39.199 34.343 37.97 42 37.904 42.409 38.097 42.816 38.455 43.023 38.813 43.232 39.262 43.197 39.584 42.938 39.682 42.859 41.694 41.194 42.573 37.12 43.787 38.671 45.268 42.06 43.576 48.623M21.566 41.746C21.654 41.596 21.742 41.446 21.843 41.29 23.906 38.056 23.155 33.546 22.496 31.075 24.375 32.086 26.082 34.637 26.689 35.764 26.878 36.111 27.242 36.313 27.648 36.286 28.043 36.255 28.382 35.995 28.514 35.622 30.396 30.271 29.197 26.372 27.829 24.016 28.359 24.265 28.843 24.561 29.291 24.895 30.399 26.704 32.998 31.351 33.267 33.715 33.596 36.625 32.565 38.746 31.182 41.218 30.964 41.61 30.767 42.002 30.579 42.4 28.05 47.845 28.77 53.366 29.458 56.27 27.248 55.229 25.396 53.945 24.188 53.103 20.542 50.569 19.383 45.592 21.566 41.746M42.355 34.256C42.062 34.096 41.707 34.092 41.41 34.248 41.113 34.403 40.915 34.697 40.88 35.03 40.752 36.27 40.506 37.304 40.215 38.153 39.833 27.889 31.386 23.717 30.516 23.315 29.077 22.236 27.354 21.524 25.239 21.154 24.798 21.075 24.353 21.307 24.162 21.718 23.971 22.127 24.08 22.616 24.427 22.907 24.61 23.062 28.517 26.441 27.21 32.865 25.889 31.046 23.646 28.65 21 28.65 20.67 28.65 20.362 28.813 20.176 29.085 19.989 29.357 19.948 29.704 20.067 30.012 20.093 30.076 22.529 36.497 20.161 40.208 20.048 40.383 19.944 40.557 19.81 40.787 17.138 45.496 18.561 51.627 23.046 54.745 24.665 55.873 27.373 57.761 30.662 58.941L30.662 58.94C30.769 58.978 30.881 59 31 59 31.03 59 31.081 58.999 31.111 58.996 32.353 58.883 43.303 57.647 45.513 49.124 48.446 37.741 42.605 34.393 42.355 34.256" id="AWS-Firewall-Manager_Icon_64_Squid" fill="#92D050"/></g></svg>