<svg width="692.296" height="243.316" viewBox="0 0 692.296 243.316" xmlns="http://www.w3.org/2000/svg" xmlns:xlink="http://www.w3.org/1999/xlink" id="Layer_1" xml:space="preserve" overflow="hidden"><g><g><g id="software_one"><g id="one"><path d="M241.102 144.914C230.186 202.025 179.877 243.316 121.658 243.316 54.5801 243.316 0 188.736 0 121.658 0 54.4219 54.5801 0 121.658 0 180.035 0 230.186 41.291 241.102 98.4023L241.102 6.80273 310.236 6.80273 310.236 34.9629C329.537 10.7578 351.052 0 379.687 0 429.996 0 461.162 36.3867 461.162 95.2383L461.162 99.5098C470.654 39.709 517.482 0 578.865 0 646.259 0 692.296 50.7832 692.296 124.822L692.296 140.168 528.398 140.168C533.302 173.707 552.919 192.85 582.345 192.85 603.861 192.85 619.365 182.883 624.111 165.797L689.132 165.797C679.957 212.309 636.925 243.316 581.396 243.316 519.064 243.316 470.812 203.449 461.162 143.965L461.162 236.514 390.919 236.514 390.919 102.516C390.919 73.7227 376.681 57.7441 351.21 57.7441 327.322 57.7441 311.502 75.4629 311.502 102.516L311.502 236.514 241.102 236.514 241.102 144.914ZM623.636 95.8711C619.207 65.9707 602.121 48.5684 577.441 48.5684 552.603 48.5684 535.201 65.6543 529.505 95.8711L623.636 95.8711Z" fill="#FFFFFF"/></g><g id="software"><path d="M9.43939 125.616 18.1801 125.616C18.7228 128.558 20.4081 129.844 23.8359 129.844 26.6923 129.844 28.5776 128.387 28.5776 126.159 28.5776 124.531 27.3207 123.474 24.8071 123.046L21.4079 122.474C13.6098 121.16 10.2106 118.275 10.2106 112.962 10.2106 107.335 15.695 103.365 23.4645 103.365 31.2912 103.365 35.9758 106.535 37.0327 112.591L28.3776 112.591C27.9777 110.22 26.2353 108.935 23.4074 108.935 20.7509 108.935 18.78 110.477 18.78 112.562 18.78 114.105 20.0082 114.962 22.8647 115.476L26.5495 116.133C34.0905 117.475 37.404 120.475 37.404 125.959 37.404 131.872 32.0053 135.842 23.9501 135.842 15.3237 135.842 10.0392 132.129 9.43939 125.616ZM38.8608 119.703C38.8608 110.249 45.7162 103.365 55.1711 103.365 64.5688 103.365 71.1957 109.992 71.1957 119.446 71.1957 129.016 64.426 135.842 54.9426 135.842 45.4592 135.842 38.8608 129.215 38.8608 119.703ZM61.9409 119.504C61.9409 113.819 59.2558 110.22 54.9997 110.22 50.8007 110.22 48.1157 113.876 48.1157 119.561 48.1157 125.388 50.7436 128.987 54.9997 128.987 59.2844 128.987 61.9409 125.331 61.9409 119.504ZM70.7101 104.307 75.7375 104.307 75.7375 101.337C75.7375 94.4811 78.8796 91.4532 85.935 91.4532 87.1061 91.4532 88.5344 91.5675 89.3342 91.7103L89.3342 98.1945C88.82 98.1659 88.82 98.1659 88.1916 98.1659 85.6208 98.1659 84.7639 98.9086 84.7639 101.194L84.7639 104.307 93.676 104.307 93.676 94.7382 102.674 94.7382 102.674 104.307 116.727 104.307 119.984 118.875C120.441 120.96 120.898 123.188 121.269 125.274 121.726 123.103 122.269 120.932 122.812 118.904L126.611 104.536 133.98 104.536 137.837 118.904C138.294 120.675 138.836 122.96 139.293 124.902 139.836 121.96 140.122 120.532 140.493 118.904L143.749 104.307 152.633 104.307 143.949 134.9 135.294 134.9 130.124 115.305 125.068 134.9 116.156 134.9 109.415 110.706 102.674 110.706 102.674 124.645C102.674 127.273 103.616 128.159 106.359 128.159 107.158 128.159 107.587 128.13 108.387 127.987L108.387 134.614C106.873 134.9 105.159 135.1 103.788 135.1 96.5324 135.1 93.676 132.415 93.676 125.588L93.676 110.706 84.7639 110.706 84.7639 134.9 75.7375 134.9 75.7375 110.706 70.7101 110.706 70.7101 104.307ZM150.948 127.016C150.948 121.474 154.547 118.675 163.773 117.104 168.743 116.276 170.543 115.133 170.543 112.791 170.543 110.449 168.8 109.02 165.915 109.02 162.859 109.02 161.117 110.42 160.917 113.077L152.604 113.077C153.261 106.792 157.975 103.365 166.001 103.365 174.856 103.365 179.227 107.621 179.227 116.276L179.227 128.416C179.227 132.186 179.426 133.272 180.426 134.9L171.743 134.9C171.314 133.871 171.029 132.7 170.914 131.129 168.543 134.243 165.487 135.671 161.259 135.671 154.861 135.671 150.948 132.386 150.948 127.016ZM165.487 121.732C161.202 122.589 159.603 123.788 159.603 126.159 159.603 128.558 161.145 129.93 163.887 129.93 168.029 129.93 170.571 127.302 170.571 123.103L170.571 120.246C169.258 120.875 168.172 121.189 165.487 121.732ZM183.711 104.307 192.652 104.307 192.652 108.992C194.594 105.478 197.136 103.793 200.564 103.793 200.964 103.793 201.792 103.879 202.478 104.022L202.478 111.505C201.907 111.363 201.307 111.306 200.05 111.306 195.651 111.306 192.823 114.133 192.823 118.532L192.823 134.9 183.711 134.9 183.711 104.307ZM202.192 119.703C202.192 109.963 208.591 103.365 218.046 103.365 227.043 103.365 233.099 110.106 233.099 120.189L233.099 121.76 211.247 121.76C211.847 126.845 214.475 129.73 218.503 129.73 221.53 129.73 223.501 128.301 224.158 125.702L232.671 125.702C231.442 131.786 225.729 135.842 218.388 135.842 208.762 135.842 202.192 129.301 202.192 119.703ZM224.13 116.419C223.559 111.763 221.388 109.277 217.874 109.277 214.361 109.277 212.161 111.734 211.419 116.419L224.13 116.419Z"/></g></g></g></g></svg>