<svg viewBox="0 0 96 96" xmlns="http://www.w3.org/2000/svg" xmlns:xlink="http://www.w3.org/1999/xlink" id="Icons_AdhesiveBandage_M" overflow="hidden"><style>
.MsftOfcThm_Accent4_Fill_v2 {
 fill:#00DEFF; 
}
</style>
<g id="Icons"><path d="M71.946 11.022C79.1539 11.0204 84.9983 16.8622 85 24.07 85.0007 27.3284 83.7825 30.4692 81.585 32.875L32.869 81.542C27.5508 86.4081 19.2949 86.0416 14.4288 80.7234 9.87066 75.7417 9.86465 68.1058 14.415 63.117L63.131 14.45C65.5358 12.2428 68.6819 11.0194 71.946 11.022M71.946 9.022C68.1656 9.01794 64.5229 10.4407 61.746 13.006L12.97 61.734C7.3479 67.8575 7.7544 77.3793 13.8779 83.0014 19.6412 88.2927 28.4972 88.2864 34.253 82.987L83.03 34.259C88.6556 28.1394 88.2551 18.618 82.1355 12.9925 79.3569 10.4382 75.7202 9.02113 71.946 9.022Z" class="MsftOfcThm_Accent4_Fill_v2" stroke-width="1.0001" fill="#00DEFF"/><path d="M48 35.893C47.1716 35.8928 46.4999 36.5643 46.4997 37.3927 46.4995 38.2211 47.1709 38.8928 47.9994 38.893 48.8278 38.8932 49.4995 38.2217 49.4997 37.3933 49.4998 36.9957 49.342 36.6143 49.061 36.333 48.7797 36.0514 48.398 35.8931 48 35.893Z" class="MsftOfcThm_Accent4_Fill_v2" stroke-width="1.0001" fill="#00DEFF"/><path d="M51.536 39.429C50.7076 39.4288 50.0359 40.1003 50.0357 40.9287 50.0355 41.7571 50.7069 42.4288 51.5354 42.429 52.3638 42.4292 53.0355 41.7577 53.0357 40.9293 53.0358 40.5312 52.8776 40.1494 52.596 39.868 52.3148 39.587 51.9335 39.4291 51.536 39.429Z" class="MsftOfcThm_Accent4_Fill_v2" stroke-width="1.0001" fill="#00DEFF"/><path d="M55.071 42.964C54.2426 42.9638 53.5709 43.6353 53.5707 44.4637 53.5705 45.2921 54.2419 45.9638 55.0704 45.964 55.8988 45.9642 56.5705 45.2927 56.5707 44.4643 56.5708 44.0667 56.413 43.6853 56.132 43.404 55.8507 43.1224 55.469 42.9641 55.071 42.964Z" class="MsftOfcThm_Accent4_Fill_v2" stroke-width="1.0001" fill="#00DEFF"/><path d="M58.607 46.5C57.7786 46.4998 57.1069 47.1713 57.1067 47.9997 57.1065 48.8281 57.7779 49.4998 58.6064 49.5 59.4348 49.5002 60.1065 48.8287 60.1067 48.0003 60.1068 47.6022 59.9486 47.2204 59.667 46.939 59.3858 46.658 59.0045 46.5001 58.607 46.5Z" class="MsftOfcThm_Accent4_Fill_v2" stroke-width="1.0001" fill="#00DEFF"/><path d="M37.393 46.5C36.5646 46.5004 35.8933 47.1723 35.8937 48.0007 35.8941 48.8291 36.5659 49.5004 37.3944 49.5 38.2228 49.4996 38.8941 48.8277 38.8937 47.9993 38.8935 47.6016 38.7353 47.2202 38.454 46.939 38.1729 46.6573 37.791 46.4993 37.393 46.5Z" class="MsftOfcThm_Accent4_Fill_v2" stroke-width="1.0001" fill="#00DEFF"/><path d="M40.929 50.036C40.1006 50.0364 39.4293 50.7083 39.4297 51.5367 39.4301 52.3651 40.1019 53.0364 40.9304 53.036 41.7588 53.0356 42.4301 52.3637 42.4297 51.5353 42.4295 51.1376 42.2713 50.7562 41.99 50.475 41.7086 50.1937 41.3269 50.0358 40.929 50.036Z" class="MsftOfcThm_Accent4_Fill_v2" stroke-width="1.0001" fill="#00DEFF"/><path d="M44.464 53.571C43.6356 53.5714 42.9643 54.2433 42.9647 55.0717 42.9651 55.9001 43.6369 56.5714 44.4654 56.571 45.2938 56.5706 45.9651 55.8987 45.9647 55.0703 45.9645 54.6726 45.8063 54.2912 45.525 54.01 45.2436 53.7287 44.8619 53.5708 44.464 53.571Z" class="MsftOfcThm_Accent4_Fill_v2" stroke-width="1.0001" fill="#00DEFF"/><path d="M48 57.107C47.1716 57.1074 46.5003 57.7793 46.5007 58.6077 46.5011 59.4361 47.1729 60.1074 48.0014 60.107 48.8298 60.1066 49.5011 59.4347 49.5007 58.6063 49.5005 58.2086 49.3423 57.8272 49.061 57.546 48.7796 57.2647 48.3979 57.1068 48 57.107Z" class="MsftOfcThm_Accent4_Fill_v2" stroke-width="1.0001" fill="#00DEFF"/><path d="M44.464 39.429C43.6356 39.4294 42.9643 40.1013 42.9647 40.9297 42.9651 41.7581 43.6369 42.4294 44.4654 42.429 45.2938 42.4286 45.9651 41.7567 45.9647 40.9283 45.9645 40.5306 45.8063 40.1492 45.525 39.868 45.2439 39.5863 44.862 39.4283 44.464 39.429Z" class="MsftOfcThm_Accent4_Fill_v2" stroke-width="1.0001" fill="#00DEFF"/><path d="M48 42.964C47.1716 42.9638 46.4999 43.6353 46.4997 44.4637 46.4995 45.2921 47.1709 45.9638 47.9994 45.964 48.8278 45.9642 49.4995 45.2927 49.4997 44.4643 49.4998 44.0667 49.342 43.6853 49.061 43.404 48.7797 43.1224 48.398 42.9641 48 42.964Z" class="MsftOfcThm_Accent4_Fill_v2" stroke-width="1.0001" fill="#00DEFF"/><path d="M51.536 46.5C50.7076 46.4998 50.0359 47.1713 50.0357 47.9997 50.0355 48.8281 50.7069 49.4998 51.5354 49.5 52.3638 49.5002 53.0355 48.8287 53.0357 48.0003 53.0358 47.6022 52.8776 47.2204 52.596 46.939 52.3148 46.658 51.9335 46.5001 51.536 46.5Z" class="MsftOfcThm_Accent4_Fill_v2" stroke-width="1.0001" fill="#00DEFF"/><path d="M55.071 50.036C54.2426 50.0364 53.5713 50.7083 53.5717 51.5367 53.5721 52.3651 54.2439 53.0364 55.0724 53.036 55.9008 53.0356 56.5721 52.3637 56.5717 51.5353 56.5715 51.1376 56.4133 50.7562 56.132 50.475 55.8506 50.1937 55.4689 50.0358 55.071 50.036Z" class="MsftOfcThm_Accent4_Fill_v2" stroke-width="1.0001" fill="#00DEFF"/><path d="M40.929 42.964C40.1006 42.9638 39.4289 43.6353 39.4287 44.4637 39.4285 45.2921 40.0999 45.9638 40.9284 45.964 41.7568 45.9642 42.4285 45.2927 42.4287 44.4643 42.4288 44.0667 42.271 43.6853 41.99 43.404 41.7087 43.1224 41.327 42.9641 40.929 42.964Z" class="MsftOfcThm_Accent4_Fill_v2" stroke-width="1.0001" fill="#00DEFF"/><path d="M44.464 46.5C43.6356 46.5004 42.9643 47.1723 42.9647 48.0007 42.9651 48.8291 43.6369 49.5004 44.4654 49.5 45.2938 49.4996 45.9651 48.8277 45.9647 47.9993 45.9645 47.6016 45.8063 47.2202 45.525 46.939 45.2439 46.6573 44.862 46.4993 44.464 46.5Z" class="MsftOfcThm_Accent4_Fill_v2" stroke-width="1.0001" fill="#00DEFF"/><path d="M48 50.036C47.1716 50.0364 46.5003 50.7083 46.5007 51.5367 46.5011 52.3651 47.1729 53.0364 48.0014 53.036 48.8298 53.0356 49.5011 52.3637 49.5007 51.5353 49.5005 51.1376 49.3423 50.7562 49.061 50.475 48.7796 50.1937 48.3979 50.0358 48 50.036Z" class="MsftOfcThm_Accent4_Fill_v2" stroke-width="1.0001" fill="#00DEFF"/><path d="M51.536 53.571C50.7076 53.5708 50.0359 54.2423 50.0357 55.0707 50.0355 55.8991 50.7069 56.5708 51.5354 56.571 52.3638 56.5712 53.0355 55.8997 53.0357 55.0713 53.0358 54.6732 52.8776 54.2914 52.596 54.01 52.3148 53.729 51.9335 53.5711 51.536 53.571Z" class="MsftOfcThm_Accent4_Fill_v2" stroke-width="1.0001" fill="#00DEFF"/></g></svg>