<svg width="48" height="48" viewBox="0 0 48 48" xmlns="http://www.w3.org/2000/svg" xmlns:xlink="http://www.w3.org/1999/xlink" overflow="hidden"><g id="Icon-Service/48/AWS-Network-Firewall_48" fill="none" fill-rule="evenodd"><path d="M44 37.993 37 37.993 35 37.993 35 33.993 42 33.993 44 33.993 44 37.993ZM36 43.993 27.019 43.993 27.093 39.993 34 39.993 36 39.993 36 43.993ZM19.793 42.204C16.626 42.204 13.72 40.607 12.019 37.932 10.673 35.817 10.649 33.084 11.998 30.732 13.527 28.41 13.163 25.283 12.687 23.289 13.951 24.16 15.074 25.802 15.467 26.506 15.657 26.848 16.028 27.041 16.42 27.016 16.811 26.985 17.146 26.73 17.28 26.362 18.678 22.523 17.969 19.635 16.983 17.761 20.184 18.982 25 21.953 25 28.771 25 29.043 25.111 29.305 25.309 29.493 25.505 29.682 25.764 29.772 26.043 29.77 26.823 29.736 28.097 29.244 29 27.87L29 31.993 23 31.993C22.447 31.993 22 32.441 22 32.993L22 38.993C22 39.545 22.447 39.993 23 39.993L25.093 39.993 25.08 40.648C23.777 41.643 21.896 42.204 19.793 42.204L19.793 42.204ZM7.209 28.485C5.745 27.515 4 25.669 4 22.383 4 17.901 7.118 16.431 8.977 15.953 9.439 15.834 9.754 15.404 9.726 14.926L9.65 13.665C9.65 10.056 12.134 6.17495 15.303 4.82895 20.79 2.49595 24.682 5.56295 26.102 6.98995 27.26 8.15495 28.163 9.64495 28.787 11.418 28.91 11.767 29.217 12.02 29.583 12.075 29.943 12.129 30.316 11.977 30.535 11.679 31.439 10.452 32.993 9.93695 34.407 10.402 36.011 10.929 36.931 12.519 36.929 14.702 36.849 15.24 37.212 15.743 37.748 15.836 41.955 16.561 44 18.575 44 21.993 44 23.81 43.58 25.241 42.739 26.333 42.557 26.128 42.297 25.993 42 25.993L31.104 25.993C30.803 24.811 29.96 24.109 29.414 23.861 29.121 23.727 28.781 23.743 28.503 23.903 28.225 24.062 28.039 24.347 28.006 24.666 27.855 26.098 27.385 26.87 26.931 27.287 25.941 16.875 14.636 15.022 14.517 15.004 14.077 14.939 13.638 15.175 13.453 15.588 13.271 16 13.388 16.485 13.737 16.77 13.872 16.881 16.651 19.216 15.936 23.656 14.845 22.299 13.148 20.722 11.163 20.722 10.831 20.722 10.521 20.888 10.335 21.162 10.149 21.437 10.111 21.786 10.234 22.095 10.252 22.139 11.848 26.217 10.661 28.993L8.938 28.993C8.308 28.993 7.71 28.817 7.209 28.485L7.209 28.485ZM34 31.993 31 31.993 31 27.993 41 27.993 41 31.993 34 31.993ZM24 37.993 24 33.993 30 33.993 33 33.993 33 37.993 26.111 37.993 24 37.993ZM45 31.993 43 31.993 43 28.872C44.983 27.333 46 25.028 46 21.993 46 19.039 44.742 15.326 38.902 14.025 38.688 11.278 37.275 9.23995 35.031 8.50195 33.327 7.94195 31.493 8.27595 30.091 9.31995 29.419 7.87895 28.558 6.62495 27.52 5.57995 23.969 2.00795 19.109 1.03995 14.521 2.98795 10.605 4.65195 7.65 9.24195 7.652 13.724L7.684 14.257C5.514 15.011 2 17.056 2 22.383 2 26.777 4.571 29.137 6.104 30.152 6.933 30.702 7.913 30.993 8.938 30.993L9.654 30.993C8.589 33.653 8.815 36.623 10.331 39.006 12.401 42.261 15.938 44.204 19.793 44.204 21.741 44.204 23.549 43.779 25.036 43.015L25 44.974C24.995 45.243 25.099 45.502 25.286 45.694 25.475 45.885 25.731 45.993 26 45.993L37 45.993C37.553 45.993 38 45.545 38 44.993L38 39.993 45 39.993C45.553 39.993 46 39.545 46 38.993L46 32.993C46 32.441 45.553 31.993 45 31.993L45 31.993Z" id="Fill-3" fill="#92D050"/></g></svg>