<svg viewBox="0 0 2738.59 1087.24" xmlns="http://www.w3.org/2000/svg" xmlns:xlink="http://www.w3.org/1999/xlink" id="Layer_1" overflow="hidden"><style>
.MsftOfcThm_Background1_Stroke_v2 {
 stroke:#FFFFFF; 
}
</style>
<defs></defs><circle cx="502.5" cy="502.5" r="500" class="MsftOfcThm_Background1_Stroke_v2" stroke="#FFFFFF" stroke-width="4.99993" stroke-miterlimit="10" fill="none"/><ellipse cx="537.6" cy="522.36" rx="480.9" ry="480.14" class="MsftOfcThm_Background1_Stroke_v2" stroke="#FFFFFF" stroke-width="4.99993" stroke-miterlimit="10" fill="none"/><ellipse cx="489.88" cy="494.97" rx="477.43" ry="463.35" class="MsftOfcThm_Background1_Stroke_v2" stroke="#FFFFFF" stroke-width="4.99993" stroke-miterlimit="10" fill="none"/><ellipse cx="514.4" cy="513.37" rx="459.19" ry="444.95" class="MsftOfcThm_Background1_Stroke_v2" stroke="#FFFFFF" stroke-width="4.99993" stroke-miterlimit="10" fill="none"/><ellipse cx="502.82" cy="500.27" rx="470.77" ry="458.06" class="MsftOfcThm_Background1_Stroke_v2" stroke="#FFFFFF" stroke-width="4.99993" stroke-miterlimit="10" fill="none"/><ellipse cx="499.94" cy="490.19" rx="473.65" ry="468.14" class="MsftOfcThm_Background1_Stroke_v2" stroke="#FFFFFF" stroke-width="4.99993" stroke-miterlimit="10" fill="none"/><ellipse cx="518.02" cy="512.78" rx="484.99" ry="489.74" class="MsftOfcThm_Background1_Stroke_v2" stroke="#FFFFFF" stroke-width="4.99993" stroke-miterlimit="10" fill="none"/><ellipse cx="497.05" cy="505.4" rx="463.1" ry="453.85" class="MsftOfcThm_Background1_Stroke_v2" stroke="#FFFFFF" stroke-width="4.99993" stroke-miterlimit="10" fill="none"/><ellipse cx="518.03" cy="515.01" rx="473.78" ry="459.24" class="MsftOfcThm_Background1_Stroke_v2" stroke="#FFFFFF" stroke-width="4.99993" stroke-miterlimit="10" fill="none"/><path d="M2540.37 445.77C2521.28 402.68 2472.98 380.39 2426.8 371.02 2338 353 2231.96 377.49 2187.52 456.45 2161.59 502.52 2160.97 558.44 2166.26 611.04 2174.93 697.25 2200.86 787.22 2265.98 844.37 2274.49 851.84 2284.05 858.86 2295.2 860.85 2307 862.95 2318.99 859.13 2330.17 854.82 2455.41 806.56 2549.11 684.84 2563.73 551.42 2566.4 527.04 2566.31 501.06 2554.33 479.66 2540.63 455.18 2514.02 441.18 2488.26 430.1 2301.77 349.88 2080.22 355.81 1898.29 445.91 1877.38 456.27 1856.39 468.16 1842.06 486.57 1812.68 524.33 1819.01 579.18 1837.6 623.26 1864.56 687.19 1914.56 741.12 1976.28 772.82 2004.21 787.16 2036.77 797.14 2066.85 788.15 2087.73 781.91 2104.95 767.25 2120.66 752.13 2166.19 708.3 2207.03 649.31 2197.46 586.84 2187.8 523.73 2126.76 477.74 2063.65 468.05 2027.39 462.48 1988.36 467.2 1957.99 487.78 1935.77 502.84 1919.55 525.32 1907.05 549.07 1870.58 618.36 1863.33 702.47 1887.42 776.98 1911.51 851.49 1966.62 915.43 2036.75 950.26 2085.35 974.39 2155.16 979.04 2183.81 932.97 2207.78 894.42 2185.61 840.09 2147.17 815.94 2134.01 807.67 2119.04 801.93 2103.53 800.97 2048.19 797.54 2005.2 859.27 2011.9 914.31 2018.59 969.35 2060.82 1013.95 2107.8 1043.4 2149.89 1069.78 2198.98 1087.61 2248.54 1084.37 2354.72 1077.43 2430.6 980.41 2481.81 887.13 2501.17 851.86 2519.95 814.81 2550.85 789.04 2581.89 763.15 2623.68 749.99 2648.31 717.95 2690.43 663.14 2658.85 577.57 2601.41 539.11 2543.96 500.65 2470.87 496.64 2401.77 494.81 2401.01 535.94 2433.72 569.66 2467.17 593.62 2516.76 629.14 2574.39 655.98 2612.24 703.81 2650.09 751.65 2657.98 831.77 2608.32 867.19 2576.66 889.77 2533.71 886.42 2495.6 878.66 2362.78 851.6 2239.08 781.51 2147.59 681.5 2133.1 665.66 2118.95 648.73 2100.08 638.49 2081.21 628.25 2055.92 626.33 2039.5 640.16 2030.03 648.13 2024.85 660.05 2021.21 671.88 1989.39 775.3 2058.62 888.17 2152.34 942.26 2246.05 996.35 2358.1 1005.68 2466 1013.77 2482.44 1015 2499.69 1016.1 2514.71 1009.32 2529.52 1002.63 2540.02 989.23 2549.8 976.25 2572.36 946.28 2594.31 915.85 2615.63 884.99 2656.36 826.02 2696.39 759.33 2689.56 687.99 2683.03 619.85 2633 561.53 2572.56 529.41 2512.12 497.29 2442.34 487.68 2373.99 484.08 2329.5 481.74 2277.76 485.08 2251.52 521.08 2225.14 557.27 2238.23 608.37 2258.21 648.44 2277.36 686.83 2301.91 722.52 2330.91 754.12 2354.66 780 2382.96 803.97 2417.26 811.56 2451.56 819.15 2492.54 805.56 2506.73 773.43 2512.99 759.26 2513.54 743.13 2511.31 727.81 2500.19 651.47 2412.33 596.48 2338.81 619.82 2328.72 626.37 2328.8 642.1 2335.64 651.99 2342.48 661.88 2353.84 667.44 2364.53 672.95 2392.36 687.27 2419.6 704.49 2438.57 729.37 2457.55 754.25 2467.05 788.14 2456.49 817.6 2443.63 853.47 2405.88 873.65 2369.82 885.93 2326.48 900.68 2280.93 908.91 2235.17 910.24 2184.29 911.73 2130.41 903.54 2090.73 871.64 2051.06 839.74 2031.68 778.91 2058.74 735.79 2079.9 702.08 2121.2 688.09 2159.28 676.5 2218.48 658.47 2277.67 640.44 2336.87 622.41 2357.98 615.98 2382.69 605.62 2386.14 583.83 2387.99 572.12 2382.6 560.24 2374.79 551.32 2353.93 527.48 2319.32 522.21 2287.71 520.18 2198.2 514.44 2107.82 522.41 2020.69 543.72 2009.52 546.45 1998.05 549.57 1989.06 556.74 1969.51 572.31 1967.85 601.39 1971.96 626.04 1986.31 712.05 2048.9 782.6 2118.88 834.61 2188.86 886.63 2268.21 925.07 2337.72 977.71 2298.11 991.41 2257.43 1005.28 2215.53 1004.18 2173.63 1003.08 2129.58 983.79 2110.72 946.36 2211.05 896.43 2335.55 939.12 2441.43 902.39 2525.42 873.25 2588.43 791.38 2595.1 702.74 2601.77 614.09 2551.71 523.72 2473.03 482.35 2423.14 456.12 2365.69 449.17 2309.7 442.66 2257.92 436.64 2203.06 431.07 2155.73 452.92 2108.4 474.77 2074.72 534.94 2100.01 580.53 2187.04 601.49 2278.89 583.93 2363.92 555.97 2448.96 528.02 2530.65 489.74 2617.41 467.71 2626.57 400.72 2580.14 335.39 2520.23 304.05 2460.32 272.7 2389.88 269.1 2322.35 272.35 2274.2 274.67 2226.27 280.12 2178.38 285.57 2139.84 289.96 2100.34 294.62 2065.82 312.31 2040 325.54 2018.28 345.41 1997.32 365.47 1971.98 389.71 1946.58 415.53 1933.53 448.09 1920.48 480.65 1922.7 521.78 1947.85 546.22 1987.33 584.57 2052.55 562.59 2102.06 538.56 2143.61 518.39 2191.2 489.34 2192.28 443.17 2192.8 420.98 2181.79 400.34 2170.78 381.08 2156.54 356.17 2139.5 329.7 2112.23 320.79 2090.21 313.6 2066.13 319.59 2044.46 327.75 1972.61 354.79 1910.19 406.2 1869.87 471.54 1870.54 423.87 1892.11 376.85 1927.82 345.26 1956.43 412.37 1849.8 486.68 1885.38 550.36 1894.15 566.05 1910.18 576.4 1926.72 583.44 1965.65 600.02 2009.11 601.42 2051.41 602.58 2085.51 603.51 2125.55 601.6 2144.88 573.5 2161.12 549.89 2154.52 516.23 2137.03 493.52 2119.55 470.82 2093.5 456.62 2068.14 443.29 2047.43 432.4 2025.28 421.35 2001.94 423 1951.02 426.59 1924.89 484.28 1909.54 532.96 1906.93 541.23 1904.31 550.1 1906.75 558.42 1913.82 582.55 1955.15 573.54 1962.27 549.43 1969.38 525.31 1955.24 500.57 1941.67 479.39 1930.52 461.98 1913.09 442.06 1893.36 448.26 1885.79 450.64 1879.9 456.64 1875.25 463.07 1850.56 497.23 1854.78 546.02 1875.42 582.77 1896.06 619.52 1930.26 646.5 1964.84 670.59 1992.18 689.64 2021.07 707.84 2053.54 715.33 2100.55 726.18 2150.39 713.22 2193.02 690.64 2313.65 626.74 2384.09 485.73 2377.77 349.36 2377.2 337.16 2375.92 324.44 2369.37 314.14 2358.97 297.77 2338.35 291.7 2319.43 287.41 2242.3 269.93 2159.81 261.44 2085.46 288.41 2011.11 315.38 1948.02 385.95 1951.45 464.96 1938.26 426.76 1931.35 386.41 1931.07 346 1930.99 334.35 1931.66 322.01 1938.1 312.29 1947.46 298.15 1965.86 293.74 1982.51 290.54 2087.24 270.4 2192.54 253.24 2298.25 239.07 2372.98 229.05 2460.33 224.8 2511.42 280.25 2356.31 352.46 2175.62 326.45 2005.69 346.4 1992.29 334.04 1991.9 312.08 1999.98 295.74 2008.06 279.4 2022.73 267.45 2037.2 256.36 2075.41 227.07 2119.54 198.77 2167.55 202.27 2215.57 205.77 2260.97 257.73 2240.02 301.08 2199.75 318.47 2144.95 330.72 2118.6 295.65 2100.26 271.23 2108.04 234.4 2128.49 211.71 2148.94 189.02 2178.79 177.48 2207.96 168.4 2247.2 156.17 2288.96 146.91 2329.2 155.28 2369.44 163.65 2407.6 193.8 2413.73 234.44 2414.87 242 2414.82 250.07 2411.34 256.87 2406.13 267.04 2394.69 272.1 2384.1 276.4 2359.91 286.22 2334.42 296.23 2308.5 293.18 2282.57 290.14 2256.76 269.1 2258.15 243.03 2259.54 217.06 2285.45 199.62 2310.01 191.06 2387.4 164.09 2477.07 184.72 2541.53 235.34 2605.98 285.96 2646.28 363.4 2661.31 443.97 2662.81 451.99 2663.85 461.05 2658.99 467.6 2654.56 473.57 2646.63 475.52 2639.32 476.89 2600.29 484.24 2556.59 485.79 2524.42 462.5 2492.24 439.22 2483.65 383.02 2517.12 361.63 2529.3 353.84 2544.44 352.02 2558.87 352.9 2622.82 356.77 2675.66 410.24 2696.33 470.89 2717 531.53 2711.28 597.88 2700.16 660.97 2695.29 688.6 2685.33 720.79 2658.5 728.98 2645.31 733.01 2631.05 729.9 2617.89 725.77 2554.58 705.87 2497.66 658.91 2476.95 595.86 2460.72 546.43 2468.38 489.73 2497.15 446.39 2512.79 422.82 2540.75 401.64 2567.42 411.08 2582.56 416.43 2592.8 430.25 2602.11 443.33 2645.14 503.8 2689.75 568.61 2694.08 642.7 2698.4 716.79 2643.62 799.37 2569.5 795.58 2526.65 793.38 2489.7 763.73 2463.93 729.43 2402.32 647.4 2390.7 530.67 2434.93 438.1 2451.29 403.86 2480.9 369.74 2518.82 371.05 2552.84 372.23 2578.61 401.16 2598.76 428.59 2658.68 510.17 2709.64 605.76 2704.27 706.84 2698.9 807.92 2618.28 910.06 2517.09 907.19 2449.67 905.28 2392.28 860.52 2338.09 820.37 2283.9 780.22 2220.18 740.89 2153.67 752.09 2140.58 754.29 2127.55 758.6 2117.12 766.81 2098.16 781.73 2090.58 807.47 2091.1 831.59 2092.52 898.16 2150.75 955.69 2216.47 966.4 2282.19 977.12 2350.39 946.55 2395.17 897.27 2439.95 847.99 2463.44 782.31 2472.44 716.34 2485.09 623.6 2469.54 524.71 2416.23 447.78 2362.92 370.85 2268.74 319.97 2175.82 331.17 2163.03 332.71 2150 335.51 2139.35 342.76 2125.87 351.93 2117.82 367.04 2111.04 381.87 2064.85 482.95 2057.95 611.67 2128.4 697.62 2139.48 711.14 2152.79 723.66 2169.36 729.23 2188.99 735.84 2210.63 731.86 2230.22 725.15 2323.58 693.17 2389.71 594.93 2384.21 496.4 2383.64 486.19 2382.18 475.49 2376.08 467.28 2369.41 458.3 2358.35 453.85 2347.66 450.56 2281.13 430.07 2205.97 439.56 2146.62 475.94 2121.41 491.39 2097.06 512.09 2067.54 513.64 2053.85 514.36 2039.8 510.8 2026.58 514.43 2007.6 519.63 1995.55 538.03 1987.25 555.87 1955.35 624.45 1953.65 706.44 1982.68 776.28 1987.55 787.99 1993.35 800.62 1989.95 812.84 1985 830.61 1961.81 837.84 1944.36 831.84 1926.91 825.84 1914.35 810.76 1903.51 795.82 1876.86 759.09 1854.84 719.01 1838.14 676.81 1815.61 744.38 1854.02 820.23 1910.85 863.16 1967.68 906.09 2039.23 923.47 2108.55 939.83 2185.16 957.91 2261.77 975.99 2338.37 994.07 2376.81 1003.14 2416.73 1012.25 2455.42 1004.31 2528.23 989.37 2578.5 911.77 2573.56 837.61 2568.61 763.45 2516.3 697.51 2449.95 664.01 2383.6 630.52 2305.44 626.25 2232.2 638.9 2214.51 641.96 2196.04 646.43 2183.01 658.79 2165.35 675.54 2162.18 702.15 2160.83 726.46 2157.88 779.56 2159.83 836.97 2191.65 879.58 2224.64 923.77 2282.45 941.7 2337.29 947.46 2362.45 950.1 2388.68 950.99 2411.16 962.58 2433.65 974.17 2451.05 1000.66 2442.72 1024.55 2431.7 1056.14 2388.73 1059.83 2355.66 1054.8 2286.3 1044.23 2219.67 1020.61 2154.12 995.59 2100.7 975.2 2046.32 952.96 2004.52 913.93 1963.07 875.23 1937.25 823.08 1912.32 772.15 1880.68 707.52 1849.04 642.89 1817.4 578.27 1816.88 671.71 1858.01 767.2 1934.08 821.46 1983.48 856.69 2043.83 873.03 2103.67 883.06 2292.33 914.68 2493.7 887.52 2657.82 789.23 2668.86 782.62 2680.03 775.41 2687.38 764.84 2694.44 754.69 2697.37 742.27 2699.36 730.06 2711.67 654.28 2691.24 573.75 2644.3 513 2597.36 452.25 2524.58 412.17 2448.15 404.97 2402.4 400.66 2351.62 409.9 2321.62 444.72 2297.18 473.09 2291.16 514.9 2302.68 550.52 2314.21 586.15 2341.73 615.41 2374.7 633.16 2334.41 620.22 2293.51 606.98 2258.48 583.26 2223.45 559.53 2194.46 523.43 2189.31 481.44 2187.71 468.4 2188.56 454.65 2194.58 442.98 2200.59 431.32 2211.14 422.78 2221.39 414.59 2279.38 368.27 2337.37 321.96 2395.36 275.64 2403.8 268.9 2412.96 261.86 2423.73 261.04 2433.75 260.28 2443.26 265.05 2452.17 269.69 2499.08 294.12 2545.99 318.55 2592.9 342.98 2602.95 348.22 2613.24 353.63 2620.78 362.1 2631.3 373.91 2635.19 390.36 2635.41 406.17 2636.01 449.97 2610.97 491.15 2577.44 519.33 2543.9 547.52 2502.54 564.54 2461.23 579.12 2385.39 605.88 2291.93 622.69 2232.02 569.03 2196.03 536.8 2169.15 479.35 2121.18 485.09 2090.83 488.72 2070.31 518.79 2062.57 548.36 2042.85 623.67 2082.86 706.59 2147.13 750.53 2211.4 794.47 2294.75 803.56 2371.4 789.97 2448.05 776.38 2519.39 742.09 2587.77 704.86 2624.62 684.8 2663.54 660.84 2678.48 621.63 2696.7 573.8 2673.12 521.17 2650.03 475.49 2642.43 460.45 2634.11 444.62 2619.63 435.99 2607.72 428.9 2593.32 427.72 2579.49 426.91 2498.39 422.14 2416.9 423.84 2336.07 431.97 2418.44 406.03 2509.46 380.38 2588.75 414.59 2641.6 437.39 2681.21 484.77 2703.95 537.64 2726.7 590.51 2734.08 648.75 2736.05 706.27 2736.4 716.48 2736.43 727.3 2731.21 736.08 2725.49 745.69 2714.65 750.87 2704.25 755.01 2591.56 799.83 2456.09 781.69 2359.16 708.8 2338.58 693.32 2318.71 675.11 2293.72 668.89 2247.35 657.36 2197.65 696.87 2191.63 744.26 2185.61 791.66 2217.72 839.01 2261.43 858.31 2333.6 890.18 2425.24 846.43 2457.41 774.4 2489.59 702.36 2467.93 613.54 2415.92 554.22 2363.9 494.9 2286.31 462.53 2208.15 451.73 2158.9 444.92 2107.57 446.12 2060.98 463.48 2014.39 480.84 1972.98 515.86 1955.36 562.36 1933.57 619.88 1951.71 687.83 1992.26 734.08 2032.81 780.33 2092.64 806.56 2153.4 816.08 2211.3 825.15 2274.2 819.08 2322.07 785.27 2362.51 756.71 2388.43 710.81 2400.41 662.77 2422.23 575.28 2393.89 471.05 2316.65 424.53 2244.29 380.95 2149.1 397.29 2075.15 438.12 2001.21 478.95 1941.59 540.87 1875.26 593.16 1768.17 677.59 1603.08 656.49 1479.11 629.8 1355.25 603.14 1236.76 551.61 1133.04 478.83 1027.67 404.89 969.85 289.07 886.98 193.62" class="MsftOfcThm_Background1_Stroke_v2" stroke="#FFFFFF" stroke-width="4.99993" stroke-linecap="round" stroke-linejoin="round" fill="none"/></svg>