<svg viewBox="0 0 360 360" xmlns="http://www.w3.org/2000/svg" xmlns:xlink="http://www.w3.org/1999/xlink" id="Layer_1" xml:space="preserve" overflow="hidden"><g><path d="M155.72 139.8 179.18 139.8 190.95 160.15 167.49 160.15Z" fill="#A695FF" fill-rule="evenodd" clip-rule="evenodd"/><path d="M226.17 180.55 214.46 200.89 190.95 200.89 202.71 180.55Z" fill="#3AE7C9" fill-rule="evenodd" clip-rule="evenodd"/><path d="M132.21 180.55 143.96 160.15 167.49 160.15 155.72 180.55Z" fill="#C7C8CB" fill-rule="evenodd" clip-rule="evenodd"/><path d="M202.71 139.8 214.46 160.15 202.71 180.55 190.95 160.15Z" fill="#7897FF" fill-rule="evenodd" clip-rule="evenodd"/><path d="M155.72 221.23 143.96 200.89 155.72 180.55 167.49 200.89Z" fill="#3AD6FF" fill-rule="evenodd" clip-rule="evenodd"/><path d="M202.71 221.23 179.18 221.23 167.49 200.89 190.95 200.89Z" fill="#DCE93E" fill-rule="evenodd" clip-rule="evenodd"/><path d="M132.21 139.8 179.18 139.8 190.95 119.47 143.96 119.47Z" fill="#7F67FF" fill-rule="evenodd" clip-rule="evenodd"/><path d="M237.93 160.15 214.46 200.89 226.22 221.23 249.68 180.55Z" fill="#00DBB0" fill-rule="evenodd" clip-rule="evenodd"/><path d="M120.51 200.89 143.96 160.15 132.21 139.8 108.75 180.55Z" fill="#ADAFB2" fill-rule="evenodd" clip-rule="evenodd"/><path d="M190.95 119.47 214.46 160.15 237.93 160.15 214.46 119.47Z" fill="#416BFF" fill-rule="evenodd" clip-rule="evenodd"/><path d="M167.49 241.57 143.96 200.89 120.51 200.89 143.96 241.57Z" fill="#00C2FF" fill-rule="evenodd" clip-rule="evenodd"/><path d="M226.22 221.23 179.18 221.23 167.49 241.57 214.46 241.57Z" fill="#CADF01" fill-rule="evenodd" clip-rule="evenodd"/><path d="M190.95 160.15 202.71 139.8 179.18 139.8Z" fill="#5E66FF" fill-rule="evenodd" clip-rule="evenodd"/><path d="M190.95 200.89 202.71 221.23 214.46 200.89Z" fill="#3AD33E" fill-rule="evenodd" clip-rule="evenodd"/><path d="M167.49 160.15 155.72 139.8 143.96 160.15Z" fill="#887CCB" fill-rule="evenodd" clip-rule="evenodd"/><path d="M202.71 180.55 226.22 180.55 214.46 160.15Z" fill="#3A8CC9" fill-rule="evenodd" clip-rule="evenodd"/><path d="M155.72 180.55 132.21 180.55 143.96 200.89Z" fill="#3AAACB" fill-rule="evenodd" clip-rule="evenodd"/><path d="M167.49 200.89 155.72 221.23 179.18 221.23Z" fill="#24D08D" fill-rule="evenodd" clip-rule="evenodd"/><path d="M190.95 119.47 202.71 139.8 179.18 139.8Z" fill="#202AFF" fill-rule="evenodd" clip-rule="evenodd"/><path d="M226.22 221.23 202.71 221.23 214.46 200.89Z" fill="#00C000" fill-rule="evenodd" clip-rule="evenodd"/><path d="M132.21 139.8 155.72 139.8 143.96 160.15Z" fill="#5546B2" fill-rule="evenodd" clip-rule="evenodd"/><path d="M237.93 160.15 226.22 180.55 214.46 160.15Z" fill="#005CB0" fill-rule="evenodd" clip-rule="evenodd"/><path d="M120.51 200.89 132.21 180.55 143.96 200.89Z" fill="#0084B2" fill-rule="evenodd" clip-rule="evenodd"/><path d="M167.49 241.57 155.72 221.23 179.18 221.23Z" fill="#00C585" fill-rule="evenodd" clip-rule="evenodd"/></g></svg>