<svg viewBox="0 0 360 360" xmlns="http://www.w3.org/2000/svg" xmlns:xlink="http://www.w3.org/1999/xlink" id="Layer_1" xml:space="preserve" overflow="hidden"><g><path d="M132.36 180.74C136.2 171.68 142.38 164.24 149.82 158.9L149.82 158.9C163.98 148.82 182.88 146.06 200.04 153.32 201.06 153.74 202.08 154.22 203.1 154.76 197.7 145.4 189.3 137.72 178.62 133.16 162.66 126.38 145.14 128.3 131.4 136.7 122.58 142.16 115.26 150.26 110.88 160.58 100.26 185.66 110.94 214.64 135.24 226.88 127.38 213.26 125.76 196.28 132.36 180.74L132.36 180.74Z" fill="#B7A4FE" fill-rule="evenodd" clip-rule="evenodd"/><path d="M178.62 133.1C188.58 137.3 197.28 144.62 203.1 154.7 210.96 168.26 212.58 185.24 205.98 200.78 205.5 201.86 205.02 202.88 204.54 203.96 213.42 198.5 220.68 190.4 225.06 180.08 231.78 164.12 229.92 146.72 221.58 132.98 216.12 124.1 208.02 116.78 197.64 112.4 172.62 101.78 143.64 112.4 131.4 136.64 137.76 132.74 144.72 130.34 151.68 129.44 159.54 128.36 167.7 129.14 175.62 131.9 176.64 132.32 177.66 132.68 178.62 133.1L178.62 133.1Z" fill="#E3EE14" fill-rule="evenodd" clip-rule="evenodd"/><path d="M153.48 205.7C145.14 192.08 143.28 174.74 149.88 158.9 142.38 164.24 136.26 171.68 132.42 180.74 125.82 196.28 127.44 213.26 135.3 226.82 140.7 236.18 149.1 243.86 159.78 248.42 186.06 259.52 216.36 247.28 227.46 221 227.52 220.88 227.52 220.82 227.58 220.7 213.42 230.84 194.52 233.54 177.36 226.28 167.04 221.9 158.88 214.58 153.48 205.7" fill="#5B49DD" fill-rule="evenodd" clip-rule="evenodd"/><path d="M204.6 204.02C190.86 212.48 173.4 214.34 157.38 207.56 156.06 207.02 154.74 206.36 153.48 205.7 158.94 214.58 167.1 221.9 177.42 226.28 194.58 233.54 213.54 230.84 227.64 220.7 235.14 215.36 241.26 207.92 245.1 198.86 255.6 174.14 245.34 145.52 221.58 132.98 229.98 146.72 231.84 164.12 225.06 180.08 220.74 190.4 213.42 198.56 204.6 204.02L204.6 204.02Z" fill="#00ECD4" fill-rule="evenodd" clip-rule="evenodd"/></g></svg>