<svg width="64" height="64" viewBox="0 0 64 64" xmlns="http://www.w3.org/2000/svg" xmlns:xlink="http://www.w3.org/1999/xlink" overflow="hidden"><g id="Icon-Service/64/AWS-WAF_64" fill="none" fill-rule="evenodd"><path d="M6.3955 33 3.9995 33 3.9995 31 6.3985 31C6.5985 25.941 8.2385 21.128 11.2075 17.025L12.8285 18.198C10.1075 21.957 8.5975 26.366 8.3985 31L10.9995 31 10.9995 33 8.3955 33C8.5815 37.662 10.0925 42.097 12.8285 45.876L11.2075 47.049C8.2235 42.926 6.5825 38.085 6.3955 33L6.3955 33ZM47.0095 52.828C42.8975 55.805 38.0715 57.445 32.9995 57.639L32.9995 60 30.9995 60 30.9995 57.639C25.9275 57.445 21.0995 55.805 16.9875 52.828L18.1595 51.208C21.9295 53.937 26.3515 55.447 30.9995 55.639L30.9995 53 32.9995 53 32.9995 55.639C37.6475 55.446 42.0685 53.936 45.8375 51.208L47.0095 52.828ZM16.9875 11.246C21.0995 8.269 25.9275 6.629 30.9995 6.436L30.9995 4 32.9995 4 32.9995 6.436C38.0715 6.629 42.8975 8.27 47.0095 11.246L45.8375 12.866C42.0685 10.138 37.6475 8.628 32.9995 8.436L32.9995 11 30.9995 11 30.9995 8.436C26.3515 8.627 21.9295 10.138 18.1595 12.866L16.9875 11.246ZM59.9995 31 59.9995 33 57.6015 33C57.4155 38.085 55.7735 42.926 52.7905 47.049L51.1685 45.876C53.9045 42.097 55.4165 37.662 55.6015 33L52.9995 33 52.9995 31 55.5985 31C55.3995 26.366 53.8895 21.957 51.1685 18.198L52.7905 17.025C55.7585 21.128 57.3985 25.941 57.5985 31L59.9995 31ZM46.9715 15.65 54.8115 7.81 56.2255 9.224 48.3855 17.064 46.9715 15.65ZM17.0255 48.424 9.1855 56.264 7.7715 54.85 15.6115 47.01 17.0255 48.424ZM19.2515 20.667 4.4115 5.827 5.8255 4.413 20.6665 19.253 19.2515 20.667ZM44.7065 43.293 59.5855 58.173 58.1715 59.587 43.2915 44.708 44.7065 43.293ZM23.6635 32.735C23.7385 32.602 23.8195 32.468 23.9045 32.334 25.5855 29.693 25.1035 26.089 24.5695 23.912 26.0105 24.859 27.3095 26.816 27.7525 27.638 27.9415 27.986 28.3085 28.197 28.7115 28.161 29.1065 28.13 29.4455 27.87 29.5775 27.497 31.0665 23.267 30.3095 20.087 29.2595 18.026 30.5325 18.767 31.5185 19.833 32.1715 21.192 33.5875 24.134 33.2725 28.161 31.3475 31.7 28.7185 36.536 29.2455 41.606 29.8435 44.334 28.3425 43.687 27.0065 42.956 25.8535 42.152 22.8265 40.042 21.8635 35.907 23.6635 32.735L23.6635 32.735ZM37.0935 32.398C37.0285 32.807 37.2205 33.214 37.5785 33.422 37.9355 33.629 38.3855 33.596 38.7085 33.336 38.7895 33.271 40.4295 31.917 41.2235 28.642 42.1805 30.034 43.1815 32.843 41.8495 38.003 40.5315 43.108 34.2795 44.544 32.0485 44.897 31.5095 42.964 30.4165 37.599 33.1055 32.655 35.0135 29.145 35.5195 25.176 34.5635 21.901 36.3735 24.027 37.9005 27.373 37.0935 32.398L37.0935 32.398ZM21.9215 31.75C19.6195 35.81 20.8435 41.099 24.7095 43.793 26.4595 45.013 28.5795 46.072 31.0095 46.941 31.1205 46.981 31.2335 47 31.3465 47 31.3675 47 31.3855 46.989 31.4055 46.988L31.4065 46.997C31.8315 46.964 41.8255 46.096 43.7855 38.503 46.3075 28.737 41.2565 25.84 41.0405 25.721 40.7475 25.561 40.3925 25.557 40.0955 25.712 39.7985 25.868 39.5995 26.162 39.5655 26.495 39.4945 27.17 39.3835 27.771 39.2495 28.302 38.5575 20.634 32.4785 17.514 31.2495 16.959 29.9895 15.994 28.4575 15.331 26.6815 15.016 26.2355 14.935 25.7935 15.168 25.6035 15.578 25.4115 15.987 25.5205 16.477 25.8665 16.768 26.0165 16.895 29.1325 19.597 28.2435 24.739 27.0825 23.216 25.2345 21.38 23.0605 21.38 22.7305 21.38 22.4225 21.543 22.2365 21.815 22.0495 22.087 22.0095 22.434 22.1275 22.741 22.1495 22.795 24.1875 28.166 22.2165 31.261 22.1125 31.425 22.0135 31.589 21.9215 31.75L21.9215 31.75Z" id="AWS-WAF_Icon_64_Squid" fill="#92D050"/></g></svg>