<svg width="64" height="64" viewBox="0 0 64 64" xmlns="http://www.w3.org/2000/svg" xmlns:xlink="http://www.w3.org/1999/xlink" overflow="hidden"><g id="Icon-Service/64/AWS-Shield" fill="none" fill-rule="evenodd"><path d="M46.0107 41.9995 44.0107 41.9995 44.0107 45.9995 40.0107 45.9995 40.0107 47.9995 44.0107 47.9995 44.0107 51.9995 46.0107 51.9995 46.0107 47.9995 50.0107 47.9995 50.0107 45.9995 46.0107 45.9995 46.0107 41.9995ZM53.0107 46.9995C53.0107 42.5885 49.4217 38.9995 45.0107 38.9995 40.5997 38.9995 37.0107 42.5885 37.0107 46.9995 37.0107 51.4105 40.5997 54.9995 45.0107 54.9995 49.4217 54.9995 53.0107 51.4105 53.0107 46.9995L53.0107 46.9995ZM55.0107 46.9995C55.0107 52.5135 50.5247 56.9995 45.0107 56.9995 39.4967 56.9995 35.0107 52.5135 35.0107 46.9995 35.0107 41.4855 39.4967 36.9995 45.0107 36.9995 50.5247 36.9995 55.0107 41.4855 55.0107 46.9995L55.0107 46.9995ZM28.0107 49.9705 28.0107 14.4555 17.0107 18.6865 17.0107 38.9995C17.0227 39.4135 17.4067 49.3795 28.0107 49.9705L28.0107 49.9705ZM41.0107 35.6995 41.0107 18.6865 30.0107 14.4555 30.0107 49.9625C31.1707 49.8855 32.2477 49.6805 33.2467 49.3635 33.3817 50.0325 33.5807 50.6775 33.8217 51.3015 32.3567 51.7605 30.7517 51.9995 29.0107 51.9995 15.4517 51.9995 15.0137 39.1515 15.0107 39.0215L15.0107 17.9995C15.0107 17.5855 15.2657 17.2145 15.6517 17.0655L28.6517 12.0655C28.8837 11.9775 29.1377 11.9775 29.3697 12.0655L42.3697 17.0655C42.7557 17.2145 43.0107 17.5855 43.0107 17.9995L43.0107 35.1805C42.3227 35.2965 41.6547 35.4715 41.0107 35.6995L41.0107 35.6995ZM36.7557 55.6875C37.3137 56.2165 37.9207 56.6925 38.5727 57.1085 35.8177 58.3565 32.6147 58.9875 29.0107 58.9875 22.6837 58.9875 17.6397 57.0625 14.0197 53.2665 7.58866 46.5235 7.99066 36.3805 8.01166 35.9525L8.01066 13.9995C8.01066 13.5905 8.25966 13.2235 8.63966 13.0705L28.6397 5.0705C28.8777 4.9765 29.1437 4.9765 29.3817 5.0705L49.3817 13.0705C49.7617 13.2235 50.0107 13.5905 50.0107 13.9995L50.0107 35.9995C50.0107 35.9995 50.0127 36.0435 50.0147 36.1065 49.3747 35.8115 48.7057 35.5745 48.0117 35.3945L48.0107 14.6765 29.0107 7.0765 10.0107 14.6765 10.0107 35.9995C10.0047 36.1425 9.63566 45.7835 15.4767 51.8965 18.7037 55.2745 23.2577 56.9875 29.0107 56.9875 31.8987 56.9875 34.4857 56.5455 36.7557 55.6875L36.7557 55.6875Z" id="AWS-Shield_Icon_64_Squid" fill="#92D050"/></g></svg>