<svg viewBox="0 0 700 246.02" xmlns="http://www.w3.org/2000/svg" xmlns:xlink="http://www.w3.org/1999/xlink" id="Layer_1" overflow="hidden"><defs></defs><g id="software_one"><g id="one"><path d="M243.78 146.53C232.74 204.28 181.87 246.03 123.01 246.03 55.19 246.02 0 190.84 0 123.01 0 55.18 55.19 0 123.01 0 182.04 0 232.74 41.75 243.78 99.5L243.78 6.88 313.68 6.88 313.68 35.35C333.2 10.88 354.96 0 383.91 0 434.78 0 466.29 36.79 466.29 96.3L466.29 100.62C475.89 40.15 523.24 0 585.31 0 653.45 0 700 51.35 700 126.21L700 141.73 534.28 141.73C539.24 175.64 559.07 195 588.83 195 610.59 195 626.26 184.92 631.06 167.65L696.81 167.65C687.53 214.68 644.02 246.03 587.87 246.03 524.84 246.03 476.06 205.72 466.3 145.57L466.3 239.15 395.28 239.15 395.28 103.66C395.28 74.55 380.88 58.39 355.13 58.39 330.98 58.39 314.98 76.31 314.98 103.66L314.98 239.15 243.8 239.15 243.8 146.53ZM630.57 96.94C626.09 66.71 608.81 49.11 583.86 49.11 558.91 49.11 541.15 66.39 535.39 96.94L630.57 96.94Z" fill="#FFFFFF"/></g><g id="software"><path d="M9.54 127.01 18.38 127.01C18.93 129.98 20.63 131.28 24.1 131.28 26.99 131.28 28.89 129.81 28.89 127.55 28.89 125.9 27.62 124.84 25.08 124.4L21.64 123.82C13.76 122.49 10.32 119.57 10.32 114.2 10.32 108.51 15.87 104.5 23.72 104.5 31.57 104.5 36.37 107.71 37.44 113.83L28.69 113.83C28.29 111.43 26.52 110.13 23.66 110.13 20.97 110.13 18.98 111.69 18.98 113.8 18.98 115.36 20.22 116.23 23.11 116.75L26.84 117.41C34.46 118.77 37.82 121.8 37.82 127.35 37.82 133.33 32.36 137.34 24.22 137.34 15.5 137.34 10.15 133.59 9.55 127ZM39.29 121.03C39.29 111.47 46.22 104.51 55.78 104.51 65.34 104.51 71.98 111.21 71.98 120.77 71.98 130.33 65.13 137.35 55.55 137.35 45.97 137.35 39.29 130.65 39.29 121.03ZM62.63 120.83C62.63 115.08 59.92 111.44 55.61 111.44 51.3 111.44 48.65 115.14 48.65 120.88 48.65 126.62 51.31 130.41 55.61 130.41 59.91 130.41 62.63 126.71 62.63 120.82ZM71.5 105.46 76.58 105.46 76.58 102.46C76.58 95.53 79.76 92.47 86.89 92.47 88.07 92.47 89.52 92.59 90.33 92.73L90.33 99.29C89.9833 99.27 89.5967 99.26 89.17 99.26 86.57 99.26 85.7 100.01 85.7 102.32L85.7 105.47 94.71 105.47 94.71 95.79 103.81 95.79 103.81 105.47 118.02 105.47 121.31 120.2C121.77 122.31 122.23 124.56 122.61 126.67 123.07 124.47 123.62 122.28 124.17 120.23L128.01 105.7 135.46 105.7 139.36 120.23C139.82 122.02 140.37 124.33 140.83 126.3 141.38 123.33 141.67 121.88 142.04 120.23L145.33 105.47 154.31 105.47 145.53 136.4 136.78 136.4 131.55 116.59 126.44 136.4 117.43 136.4 110.61 111.94 103.79 111.94 103.79 126.03C103.79 128.69 104.74 129.58 107.52 129.58 108.33 129.58 108.76 129.55 109.57 129.41L109.57 136.11C108.04 136.4 106.31 136.6 104.92 136.6 97.58 136.6 94.7 133.89 94.7 126.98L94.7 111.93 85.69 111.93 85.69 136.39 76.56 136.39 76.56 111.93 71.48 111.93 71.48 105.46ZM152.63 128.42C152.63 122.82 156.27 119.99 165.6 118.4 170.63 117.56 172.45 116.41 172.45 114.04 172.45 111.67 170.69 110.23 167.77 110.23 164.68 110.23 162.92 111.65 162.72 114.33L154.32 114.33C154.98 107.98 159.75 104.51 167.87 104.51 176.82 104.51 181.24 108.81 181.24 117.56L181.24 129.83C181.24 133.64 181.44 134.74 182.45 136.39L173.67 136.39C173.24 135.35 172.95 134.17 172.83 132.58 170.43 135.73 167.34 137.17 163.07 137.17 156.6 137.17 152.64 133.85 152.64 128.42ZM167.33 123.08C163 123.95 161.38 125.16 161.38 127.56 161.38 129.96 162.94 131.37 165.71 131.37 169.9 131.37 172.47 128.71 172.47 124.47L172.47 121.58C171.14 122.22 170.04 122.53 167.33 123.08ZM185.76 105.46 194.8 105.46 194.8 110.2C196.76 106.65 199.33 104.94 202.8 104.94 203.2 104.94 204.04 105.03 204.74 105.17L204.74 112.74C204.16 112.6 203.56 112.54 202.29 112.54 197.84 112.54 194.98 115.4 194.98 119.85L194.98 136.4 185.77 136.4 185.77 105.47ZM204.45 121.03C204.45 111.18 210.92 104.51 220.48 104.51 230.04 104.51 235.7 111.33 235.7 121.52L235.7 123.11 213.61 123.11C214.22 128.25 216.87 131.17 220.95 131.17 224.01 131.17 226 129.73 226.67 127.1L235.28 127.1C234.04 133.25 228.26 137.35 220.84 137.35 211.11 137.35 204.46 130.74 204.46 121.03ZM226.63 117.71C226.05 113 223.86 110.49 220.3 110.49 216.74 110.49 214.52 112.97 213.77 117.71L226.62 117.71Z"/></g></g></svg>