<svg width="64" height="64" viewBox="0 0 64 64" xmlns="http://www.w3.org/2000/svg" xmlns:xlink="http://www.w3.org/1999/xlink" overflow="hidden"><g id="Icon-Service/64/AWS-Systems-Manager" fill="none" fill-rule="evenodd"><path d="M39 46.9981 52 46.9981 52 48.9984 39 48.9984 39 50.9987 37 50.9987 37 48.9984 33 48.9984 33 46.9981 37 46.9981 37 45.9979 39 45.9979 39 46.9981ZM43 40.9972 52 40.9972 52 42.9975 43 42.9975 43 44.9978 41 44.9978 41 42.9975 33 42.9975 33 40.9972 41 40.9972 41 39.997 43 39.997 43 40.9972ZM48 34.9963 52 34.9963 52 36.9966 48 36.9966 48 38.9969 46 38.9969 46 36.9966 33 36.9966 33 34.9963 46 34.9963 46 33.9961 48 33.9961 48 34.9963ZM13 38.9969 22 38.9969 22 40.9972 13 40.9972C11.745 40.9972 10.404 40.6201 9.413 39.989 7.393 38.7098 4 35.7154 4 30.0415 4 23.1605 8.665 20.6351 11.38 19.75L11.326 18.8339C11.324 13.166 15.074 7.35414 20.046 5.25683 25.869 2.78146 32.036 4.00764 36.545 8.53732 37.944 9.93853 39.096 11.6478 39.978 13.6311 41.749 12.1559 44.16 11.6508 46.4 12.3859 49.247 13.32 51.019 15.9514 51.227 19.494 54.065 20.1731 60 22.5084 60 30.1315 60 30.4166 59.989 30.6916 59.978 30.9547L57.979 30.9017C57.989 30.6346 58 30.3886 58 30.1315 58 23.3975 52.443 21.7063 50.054 21.2922 49.784 21.2452 49.546 21.0912 49.394 20.8642 49.243 20.6391 49.19 20.3631 49.246 20.098 49.217 17.1166 47.956 15.0013 45.776 14.2862 43.823 13.6431 41.677 14.3522 40.434 16.0444 40.214 16.3415 39.853 16.4965 39.482 16.4405 39.116 16.3875 38.81 16.1355 38.686 15.7864 37.853 13.443 36.656 11.4798 35.129 9.95053 31.216 6.01894 25.867 4.95478 20.826 7.0991 16.618 8.87337 13.324 14.0021 13.324 18.7748L13.423 20.4291C13.451 20.9072 13.136 21.3382 12.671 21.4562 10.18 22.0903 6 24.0486 6 30.0415 6 34.5212 8.438 37.0046 10.485 38.2998 11.16 38.7308 12.123 38.9969 13 38.9969L13 38.9969ZM58 44.3177 56.236 44.2166C55.763 44.1916 55.312 44.5177 55.204 44.9958 54.866 46.494 54.278 47.9142 53.456 49.2164 53.195 49.6305 53.271 50.1715 53.637 50.4976L54.954 51.6718 51.673 54.9542 50.502 53.6411C50.176 53.274 49.633 53.2 49.222 53.461 47.92 54.2831 46.499 54.8722 44.997 55.2113 44.521 55.3193 44.191 55.7564 44.22 56.2444L44.32 57.9997 39.68 57.9997 39.78 56.2424C39.809 55.7544 39.479 55.3173 39.003 55.2093 37.505 54.8712 36.084 54.2811 34.78 53.458 34.367 53.196 33.825 53.271 33.5 53.6381L32.326 54.9532 29.046 51.6718 30.361 50.4996C30.726 50.1735 30.802 49.6325 30.541 49.2194 29.72 47.9172 29.132 46.497 28.794 44.9958 28.687 44.5177 28.209 44.1916 27.762 44.2166L26 44.3177 26 39.677 27.768 39.778C28.233 39.804 28.691 39.4769 28.8 38.9999 29.139 37.5046 29.728 36.0864 30.55 34.7852 30.811 34.3712 30.734 33.8291 30.37 33.504L29.046 32.3229 32.327 29.0414 33.508 30.3646C33.834 30.7286 34.376 30.8036 34.787 30.5436 36.087 29.7245 37.505 29.1374 39.003 28.7993 39.479 28.6913 39.809 28.2543 39.78 27.7662L39.68 25.9949 44.32 25.9949 44.22 27.7682C44.191 28.2563 44.521 28.6923 44.997 28.8003 46.492 29.1394 47.909 29.7265 49.211 30.5466 49.622 30.8076 50.165 30.7316 50.49 30.3676L51.673 29.0414 54.954 32.3229 53.633 33.501C53.269 33.8271 53.192 34.3682 53.453 34.7822 54.275 36.0834 54.864 37.5026 55.202 38.9999 55.31 39.4759 55.763 39.804 56.234 39.778L58 39.677 58 44.3177ZM58.943 37.6197 56.942 37.7337C56.617 36.5885 56.16 35.4873 55.579 34.4452L57.076 33.11C57.281 32.927 57.402 32.6679 57.41 32.3919 57.418 32.1178 57.312 31.8508 57.117 31.6568L52.339 26.8781C52.145 26.683 51.868 26.571 51.604 26.586 51.328 26.594 51.069 26.714 50.886 26.9191L49.546 28.4213C48.505 27.8412 47.406 27.3861 46.263 27.0601L46.377 25.0518C46.393 24.7767 46.295 24.5077 46.105 24.3077 45.917 24.1076 45.654 23.9946 45.379 23.9946L38.621 23.9946C38.346 23.9946 38.083 24.1076 37.895 24.3077 37.705 24.5077 37.607 24.7767 37.623 25.0518L37.737 27.0581C36.592 27.3831 35.492 27.8392 34.452 28.4183L33.114 26.9191C32.931 26.714 32.672 26.594 32.396 26.586 32.113 26.573 31.855 26.683 31.661 26.8781L26.883 31.6568C26.688 31.8508 26.582 32.1178 26.59 32.3919 26.598 32.6669 26.719 32.927 26.924 33.11L28.424 34.4482C27.843 35.4903 27.386 36.5895 27.06 37.7337L25.057 37.6197C24.789 37.6017 24.513 37.7027 24.313 37.8907 24.113 38.0797 24 38.3428 24 38.6178L24 45.3768C24 45.6519 24.113 45.9149 24.313 46.1039 24.513 46.292 24.79 46.39 25.057 46.375L27.053 46.2609C27.378 47.4091 27.834 48.5113 28.415 49.5544L26.924 50.8836C26.719 51.0667 26.598 51.3267 26.59 51.6017 26.582 51.8768 26.688 52.1438 26.883 52.3379L31.661 57.1166C31.855 57.3116 32.138 57.4186 32.396 57.4096 32.672 57.4016 32.932 57.2806 33.114 57.0756L34.444 55.5833C35.487 56.1664 36.59 56.6245 37.736 56.9505L37.623 58.9428C37.607 59.2169 37.705 59.4859 37.895 59.687 38.083 59.887 38.346 60 38.621 60L45.379 60C45.654 60 45.917 59.887 46.106 59.687 46.295 59.4859 46.393 59.2169 46.377 58.9428L46.264 56.9525C47.412 56.6255 48.515 56.1684 49.558 55.5863L50.886 57.0756C51.068 57.2806 51.328 57.4016 51.604 57.4096 51.871 57.4216 52.145 57.3116 52.339 57.1166L57.117 52.3379C57.312 52.1438 57.418 51.8768 57.41 51.6017 57.402 51.3267 57.281 51.0667 57.075 50.8836L55.582 49.5524C56.163 48.5093 56.619 47.4071 56.945 46.2609L58.943 46.375C59.213 46.39 59.487 46.292 59.687 46.1039 59.887 45.9149 60 45.6519 60 45.3768L60 38.6178C60 38.3428 59.887 38.0797 59.687 37.8907 59.487 37.7027 59.214 37.6027 58.943 37.6197L58.943 37.6197Z" id="AWS-Systems-Manager_Icon_64_Squid" fill="#92D050"/></g></svg>