<svg width="64" height="64" viewBox="0 0 64 64" xmlns="http://www.w3.org/2000/svg" xmlns:xlink="http://www.w3.org/1999/xlink" overflow="hidden"><g id="Icon-Service/64/AWS-PrivateLink" fill="none" fill-rule="evenodd"><path d="M33.745 33.1552C34.713 34.2488 36 35.9275 36 37.872 36 41.7732 32.859 44.9467 29 44.9467L21 44.9467C17.141 44.9467 14 41.7732 14 37.872 14 33.9719 17.141 30.7973 21 30.7973L25 30.7973 25 32.8187 21 32.8187C18.243 32.8187 16 35.0866 16 37.872 16 40.6584 18.243 42.9253 21 42.9253L29 42.9253C31.757 42.9253 34 40.6584 34 37.872 34 36.6198 33.004 35.3494 32.255 34.5035L33.745 33.1552ZM48 35.8507C48 39.7519 44.859 42.9253 41 42.9253L37 42.9253 37 40.904 41 40.904C43.757 40.904 46 38.6371 46 35.8507 46 33.0653 43.757 30.7973 41 30.7973L33 30.7973C30.243 30.7973 28 33.0653 28 35.8507 28 36.7502 28.463 37.6729 28.865 38.3773L27.135 39.389C26.606 38.4673 26 37.2312 26 35.8507 26 31.9505 29.141 28.776 33 28.776L41 28.776C44.859 28.776 48 31.9505 48 35.8507L48 35.8507ZM49.28 47.9787 14.721 47.9787C10.011 47.9746 6.268 44.5859 6.017 40.0995 6.007 39.8944 6 39.6841 6 39.4699 6 33.6919 10.112 31.7646 12.605 31.1278 13.072 31.0389 13.42 30.6245 13.42 30.1333 13.42 30.0818 13.416 30.0323 13.409 29.9817 13.349 29.4784 13.318 28.9691 13.318 28.4678 13.318 23.8258 16.608 18.828 20.808 17.0897 25.869 14.9986 31.227 16.0396 35.145 19.8801 36.672 21.3759 37.863 23.2861 38.685 25.5591 38.811 25.9067 39.113 26.1564 39.474 26.212 39.835 26.2675 40.197 26.119 40.42 25.8269 41.648 24.2007 43.636 23.5175 45.493 24.0916 47.652 24.7576 49.051 26.976 49.231 30.0242 49.259 30.482 49.587 30.8641 50.032 30.955 53.667 31.6948 58 33.7869 58 39.5507 58 46.8841 52.537 47.9787 49.28 47.9787L49.28 47.9787ZM51.159 29.1368C50.735 25.6015 48.871 23.0203 46.077 22.1582 43.935 21.4982 41.679 21.9894 39.97 23.4043 39.091 21.4719 37.94 19.8033 36.538 18.4288 32.032 14.0122 25.869 12.8126 20.051 15.22 15.072 17.2797 11.318 22.9748 11.318 28.4678 11.318 28.774 11.328 29.0822 11.348 29.3905 8.627 30.2708 4 32.755 4 39.4699 4 39.7205 4.007 39.9661 4.02 40.2107 4.333 45.7855 8.933 49.9949 14.72 50L49.28 50C51.795 50 60 49.2471 60 39.5507 60 34.2104 56.868 30.5356 51.159 29.1368L51.159 29.1368Z" id="AWS-PrivateLink_Icon_64_Squid" fill="#92D050"/></g></svg>