<svg viewBox="0 0 32 32" xmlns="http://www.w3.org/2000/svg" xmlns:xlink="http://www.w3.org/1999/xlink" overflow="hidden"><style>
.MsftOfcThm_Accent6_Stroke_v2 {
 stroke:#B7A5FF; 
}
</style>
<g stroke="#000000" stroke-linecap="round" stroke-linejoin="round" fill="none" transform="translate(0.5 0.5)"><path d="M10.713 13.719C10.232 12.705 9.197 12 8 12L4 12C2.343 12 1 13.343 1 15L1 20 3 20 3 27 9 27" class="MsftOfcThm_Accent6_Stroke_v2" stroke="#B7A5FF" stroke-width="1.56101"/><circle cx="6" cy="6" r="3" class="MsftOfcThm_Accent6_Stroke_v2" stroke="#B7A5FF" stroke-width="1.56101"/><path d="M21.287 13.719C21.768 12.705 22.803 12 24 12L28 12C29.657 12 31 13.343 31 15L31 20 29 20 29 27 23 27" class="MsftOfcThm_Accent6_Stroke_v2" stroke="#B7A5FF" stroke-width="1.56101"/><circle cx="26" cy="6" r="3" class="MsftOfcThm_Accent6_Stroke_v2" stroke="#B7A5FF" stroke-width="1.56101"/><path d="M19 31 13 31 13 23 10 23 10 16C10 13.791 11.791 12 14 12L18 12C20.209 12 22 13.791 22 16L22 23 19 23 19 31Z" class="MsftOfcThm_Accent6_Stroke_v2" stroke="#B7A5FF" stroke-width="1.56101"/><circle cx="16" cy="5" r="4" class="MsftOfcThm_Accent6_Stroke_v2" stroke="#B7A5FF" stroke-width="1.56101"/></g></svg>