<svg viewBox="0 0 360 360" xmlns="http://www.w3.org/2000/svg" xmlns:xlink="http://www.w3.org/1999/xlink" id="Layer_1" xml:space="preserve" overflow="hidden"><ellipse cx="180" cy="179.9" rx="26.6" ry="26.6" fill="none"/><path d="M194.5 117.7 174.2 117.7C168.1 117.7 162.4 121 159.3 126.2L153.7 135.8C153.7 135.8 151 140.5 153.9 145.2 156.2 149 160.1 149 160.1 149L184.4 149 198.5 124.8C200.4 121.6 198.2 117.7 194.5 117.7Z" fill="#B6A3FD"/><path d="M153.8 135.8 153.8 135.8 153.8 135.8Z" fill="#5B49D8"/><path d="M160.2 149C160.2 149 156.3 149 154 145.2 151.1 140.6 153.8 135.8 153.8 135.8L153.8 135.8 126.8 182.5C130.4 176.2 137.1 172.4 144.4 172.4L170.9 172.4 170.9 172.4 184.5 149 160.2 149Z" fill="#5B49D8"/><path d="M161.9 187.9 170.9 172.4 170.9 172.4 144.4 172.4C137.1 172.4 130.4 176.3 126.8 182.5L122.1 190.6C116.8 199.8 123.4 211.2 134 211.2L176.5 211.2 190.1 187.8 161.9 187.8Z" fill="#E2ED16"/><path d="M199.1 172.4 190.1 187.9 190.1 187.9 216.6 187.9C223.9 187.9 230.6 184 234.2 177.8L238.9 169.7C244.2 160.5 237.6 149.1 227 149.1L184.5 149.1 170.9 172.5 199.1 172.5Z" fill="#1EEDA1"/><path d="M207 215.1C205 211.9 200.7 211.4 199.5 211.3L176.5 211.3 176.5 211.3 176.5 211.3 162.4 235.5C160.6 238.6 162.8 242.5 166.5 242.5L186.8 242.5C192.9 242.5 198.6 239.2 201.7 234L207.3 224.5C207.2 224.5 209.9 219.8 207 215.1Z" fill="#00DDFF"/><path d="M207.2 224.5 207.2 224.5 207.2 224.5Z" fill="#00AEEE"/><path d="M216.6 187.9 190.1 187.9 190.1 187.9 176.5 211.3 176.5 211.3 176.5 211.3 199.5 211.3C200.7 211.4 205 211.9 207 215.1 209.9 219.7 207.2 224.5 207.2 224.5L207.2 224.5 234.2 177.7C230.6 184 223.9 187.9 216.6 187.9Z" fill="#00AEEE"/></svg>