<svg viewBox="0 0 32 32" xmlns="http://www.w3.org/2000/svg" xmlns:xlink="http://www.w3.org/1999/xlink" overflow="hidden"><style>
.MsftOfcThm_Text1_Stroke_v2 {
 stroke:#000000; 
}
</style>
<g stroke="#000000" stroke-linecap="round" stroke-linejoin="round" fill="none" transform="translate(0.5 0.5)"><path d="M28 16 28 8 22 8 9 8 4 8C2.343 8 1 6.657 1 5L1 26C1 28.209 2.791 30 5 30L28 30 28 22" class="MsftOfcThm_Text1_Stroke_v2"/><path d="M31 22 24 22C22.343 22 21 20.657 21 19L21 19C21 17.343 22.343 16 24 16L31 16 31 22Z" class="MsftOfcThm_Text1_Stroke_v2"/><path d="M22 4 22 2 4 2C2.343 2 1 3.343 1 5L1 5C1 6.657 2.343 8 4 8" class="MsftOfcThm_Text1_Stroke_v2"/></g></svg>