<svg width="64" height="64" viewBox="0 0 64 64" xmlns="http://www.w3.org/2000/svg" xmlns:xlink="http://www.w3.org/1999/xlink" overflow="hidden"><style>
.MsftOfcResponsive_Fill_df526c {
 fill:#DF526C; 
}
.MsftOfcThm_Text1_Stroke_v2 {
 stroke:#000000; 
}
</style>
<g id="Icon-Service/64/AWS-Security-Hub" fill="none" fill-rule="evenodd"><path d="M36.17 33.245C36.17 33.417 36.122 37.084 33.17 37.771L33.17 26.786 36.17 28.086 36.17 33.245ZM28.17 33.229 28.17 28.086 31.17 26.786 31.17 37.774C28.295 37.114 28.173 33.659 28.17 33.229L28.17 33.229ZM37.567 26.512 32.567 24.345C32.314 24.235 32.026 24.235 31.773 24.345L26.773 26.512C26.406 26.67 26.17 27.031 26.17 27.43L26.17 33.229C26.17 35.534 27.424 39.892 32.17 39.892 36.916 39.892 38.17 35.544 38.17 33.245L38.17 27.43C38.17 27.031 37.934 26.67 37.567 26.512L37.567 26.512ZM50.99 46.174C49.213 46.174 47.768 44.729 47.768 42.952 47.768 41.175 49.213 39.729 50.99 39.729 52.768 39.729 54.213 41.175 54.213 42.952 54.213 44.729 52.768 46.174 50.99 46.174L50.99 46.174ZM32.267 41.952C26.74 41.952 22.244 37.456 22.244 31.93 22.244 26.403 26.74 21.907 32.267 21.907 37.793 21.907 42.289 26.403 42.289 31.93 42.289 37.456 37.793 41.952 32.267 41.952L32.267 41.952ZM35.508 53.809C35.508 55.586 34.063 57.032 32.285 57.032 30.508 57.032 29.063 55.586 29.063 53.809 29.063 52.033 30.508 50.587 32.285 50.587 34.063 50.587 35.508 52.033 35.508 53.809L35.508 53.809ZM29.125 9.222C29.125 7.445 30.57 6 32.348 6 34.124 6 35.569 7.445 35.569 9.222 35.569 10.999 34.124 12.445 32.348 12.445 30.57 12.445 29.125 10.999 29.125 9.222L29.125 9.222ZM13.223 44.956C11.445 44.956 10 43.511 10 41.734 10 39.957 11.445 38.512 13.223 38.512 14.999 38.512 16.444 39.957 16.444 41.734 16.444 43.511 14.999 44.956 13.223 44.956L13.223 44.956ZM14.32 23.87C12.543 23.87 11.098 22.425 11.098 20.648 11.098 18.871 12.543 17.425 14.32 17.425 16.097 17.425 17.542 18.871 17.542 20.648 17.542 22.425 16.097 23.87 14.32 23.87L14.32 23.87ZM51.117 16.633C52.895 16.633 54.34 18.078 54.34 19.855 54.34 21.632 52.895 23.078 51.117 23.078 49.341 23.078 47.896 21.632 47.896 19.855 47.896 18.078 49.341 16.633 51.117 16.633L51.117 16.633ZM50.99 37.729C49.545 37.729 48.235 38.321 47.289 39.273L43.323 36.645C43.943 35.196 44.289 33.603 44.289 31.93 44.289 29.741 43.691 27.694 42.666 25.925L47.204 23.276C48.162 24.371 49.552 25.078 51.117 25.078 53.997 25.078 56.34 22.735 56.34 19.855 56.34 16.975 53.997 14.633 51.117 14.633 48.238 14.633 45.896 16.975 45.896 19.855 45.896 20.45 46.017 21.013 46.201 21.546L41.528 24.273C39.522 21.85 36.582 20.233 33.267 19.958L33.267 14.352C35.707 13.915 37.569 11.787 37.569 9.222 37.569 6.343 35.227 4 32.348 4 29.468 4 27.125 6.343 27.125 9.222 27.125 11.731 28.904 13.829 31.267 14.329L31.267 19.958C27.717 20.252 24.608 22.095 22.604 24.807L19.166 22.566C19.402 21.971 19.542 21.327 19.542 20.648 19.542 17.768 17.199 15.425 14.32 15.425 11.441 15.425 9.098 17.768 9.098 20.648 9.098 23.528 11.441 25.87 14.32 25.87 15.802 25.87 17.134 25.244 18.085 24.249L21.551 26.509C20.722 28.14 20.244 29.978 20.244 31.93 20.244 33.416 20.528 34.834 21.024 36.15L17.163 38.346C16.205 37.233 14.803 36.512 13.223 36.512 10.343 36.512 8 38.854 8 41.734 8 44.614 10.343 46.956 13.223 46.956 16.102 46.956 18.444 44.614 18.444 41.734 18.444 41.154 18.327 40.606 18.152 40.084L21.884 37.961C23.813 41.27 27.27 43.576 31.285 43.902L31.285 48.688C28.883 49.156 27.063 51.272 27.063 53.809 27.063 56.689 29.405 59.032 32.285 59.032 35.165 59.032 37.508 56.689 37.508 53.809 37.508 51.272 35.688 49.156 33.285 48.688L33.285 43.9C37.1 43.578 40.406 41.471 42.374 38.415L46.175 40.934C45.913 41.555 45.768 42.237 45.768 42.952 45.768 45.831 48.11 48.174 50.99 48.174 53.87 48.174 56.213 45.831 56.213 42.952 56.213 40.072 53.87 37.729 50.99 37.729L50.99 37.729Z" id="AWS-Security-Hub_Icon_64_Squid" class="MsftOfcThm_Text1_Stroke_v2 MsftOfcResponsive_Fill_df526c" stroke="#000000" fill="#DF526C"/></g></svg>