<svg width="64" height="64" viewBox="0 0 64 64" xmlns="http://www.w3.org/2000/svg" xmlns:xlink="http://www.w3.org/1999/xlink" overflow="hidden"><style>
.MsftOfcResponsive_Fill_df526c {
 fill:#DF526C; 
}
.MsftOfcThm_Text1_Stroke_v2 {
 stroke:#000000; 
}
</style>
<g id="Icon-Service/64/Amazon-Inspector" fill="none" fill-rule="evenodd"><path d="M27.5082 22.8559C26.222 22.8559 25.1764 21.8091 25.1764 20.5236 25.1764 19.237 26.222 18.1902 27.5082 18.1902 28.7945 18.1902 29.8411 19.237 29.8411 20.5236 29.8411 21.8091 28.7945 22.8559 27.5082 22.8559M25.8235 30.5512C28.0385 30.5512 29.8411 32.3542 29.8411 34.5697 29.8411 36.7851 28.0385 38.5881 25.8235 38.5881 23.6085 38.5881 21.8059 36.7851 21.8059 34.5697 21.8059 32.3542 23.6085 30.5512 25.8235 30.5512M25.8235 41.9593C18.033 41.9593 11.6946 35.6195 11.6946 27.8273 11.6946 20.0351 18.033 13.6953 25.8235 13.6953 33.614 13.6953 39.9524 20.0351 39.9524 27.8273 39.9524 29.835 39.525 31.7429 38.766 33.4749L31.5198 32.4211C30.9765 30.9847 29.908 29.808 28.5468 29.1248L28.5468 24.7957C30.4772 24.3263 31.9183 22.5952 31.9183 20.5236 31.9183 18.0913 29.9399 16.1136 27.5082 16.1136 25.0765 16.1136 23.0992 18.0913 23.0992 20.5236 23.0992 22.5952 24.5402 24.3263 26.4696 24.7957L26.4696 28.5095C26.2569 28.4875 26.0412 28.4746 25.8235 28.4746 24.2776 28.4746 22.8685 29.0579 21.792 30.0098L19.2803 27.4727C19.9484 26.5118 20.3429 25.3461 20.3429 24.0895 20.3429 22.0588 19.3223 20.1909 17.6126 19.0932L16.5341 20.7753C17.6675 21.5034 18.3456 22.742 18.3456 24.0895 18.3456 26.2641 16.577 28.0331 14.4029 28.0331L14.4029 30.0308C15.6732 30.0308 16.8486 29.6263 17.8163 28.944L20.4827 31.638C20.0024 32.509 19.7287 33.5079 19.7287 34.5697 19.7287 37.9309 22.463 40.6648 25.8235 40.6648 29.181 40.6648 31.9133 37.9348 31.9183 34.5776L37.7194 35.4217C35.2068 39.3462 30.8177 41.9593 25.8235 41.9593M25.8235 11.6186C16.8876 11.6186 9.61741 18.8894 9.61741 27.8273 9.61741 36.7652 16.8876 44.0369 25.8235 44.0369 34.7594 44.0369 42.0296 36.7652 42.0296 27.8273 42.0296 18.8894 34.7594 11.6186 25.8235 11.6186M57.0952 55.8546C55.8968 57.1801 53.8356 57.2899 52.5054 56.0943L39.7687 44.6023C41.4364 43.2129 42.8914 41.5787 44.0848 39.7578L56.8556 51.2638C58.1828 52.4644 58.2896 54.5241 57.0952 55.8546M6.07719 27.8273C6.07719 16.9366 14.9352 8.07665 25.8235 8.07665 36.7118 8.07665 45.5698 16.9366 45.5698 27.8273 45.5698 38.718 36.7118 47.5779 25.8235 47.5779 14.9352 47.5779 6.07719 38.718 6.07719 27.8273M58.2457 49.7215 45.1584 37.9319C46.7452 34.9083 47.647 31.4722 47.647 27.8273 47.647 15.7909 37.8562 6 25.8235 6 13.7908 6 4 15.7909 4 27.8273 4 39.8637 13.7908 49.6556 25.8235 49.6556 30.3634 49.6556 34.5847 48.2592 38.0809 45.8759L51.1173 57.6375C52.1319 58.5505 53.4062 59 54.6765 59 56.1345 59 57.5866 58.4077 58.6381 57.244 60.5975 55.0625 60.4217 51.6883 58.2457 49.7215" id="Amazon-Inspector_Icon_64_Squid" class="MsftOfcThm_Text1_Stroke_v2 MsftOfcResponsive_Fill_df526c" stroke="#000000" fill="#DF526C"/></g></svg>