<svg width="64" height="64" viewBox="0 0 64 64" xmlns="http://www.w3.org/2000/svg" xmlns:xlink="http://www.w3.org/1999/xlink" overflow="hidden"><style>
.MsftOfcResponsive_Fill_df526c {
 fill:#DF526C; 
}
.MsftOfcThm_Text1_Stroke_v2 {
 stroke:#000000; 
}
</style>
<g id="Icon-Service/64/Amazon-GuardDuty" fill="none" fill-rule="evenodd"><path d="M39 34.8145C38.979 36.6286 38.462 42.3157 33 42.9377L33 21.0363 39 23.5924 39 34.8145ZM25 34.7655 25 23.5924 31 21.0363 31 42.9377C25.537 42.3107 25.021 36.5826 25 34.7655L25 34.7655ZM31.608 18.6033 23.608 22.0113C23.239 22.1683 23 22.5303 23 22.9313L23 34.7766C23.054 39.4926 25.443 45.0007 32 45.0007 38.556 45.0007 40.945 39.5256 41 34.8265L41 22.9313C41 22.5303 40.761 22.1683 40.392 22.0113L32.392 18.6033C32.142 18.4973 31.858 18.4973 31.608 18.6033L31.608 18.6033ZM43 34.8246C42.999 35.3216 42.843 47.0008 32 47.0008 21.157 47.0008 21.001 35.2856 21 34.7875L21 20.9493 32 16.2622 43 20.9493 43 34.8246ZM44.392 19.3683 32.392 14.2552C32.142 14.1482 31.858 14.1482 31.608 14.2552L19.608 19.3683C19.239 19.5253 19 19.8873 19 20.2883L19 34.7875C19 34.9296 19.148 49.0008 32 49.0008 44.852 49.0008 45 34.9676 45 34.8265L45 20.2883C45 19.8873 44.761 19.5253 44.392 19.3683L44.392 19.3683ZM58 36.3076 54.577 36.1116C54.119 36.0846 53.653 36.4126 53.545 36.8906 52.994 39.3346 52.035 41.6507 50.693 43.7777 50.433 44.1917 50.509 44.7327 50.873 45.0577L53.431 47.3398 47.339 53.4309 45.064 50.8808C44.737 50.5148 44.196 50.4408 43.784 50.7018 41.661 52.0439 39.341 53.0039 36.89 53.5579 36.413 53.6659 36.084 54.1029 36.112 54.5909L36.308 58 27.692 58 27.888 54.5879C27.916 54.0999 27.587 53.6629 27.11 53.5549 24.667 53.0029 22.349 52.0409 20.22 50.6968 19.807 50.4368 19.265 50.5098 18.939 50.8768L16.661 53.4309 10.569 47.3398 13.123 45.0627C13.487 44.7367 13.563 44.1957 13.303 43.7827 11.962 41.6577 11.003 39.3386 10.452 36.8916 10.345 36.4136 9.896 36.0886 9.42 36.1116L6 36.3076 6 27.6924 9.428 27.8874C9.889 27.9034 10.351 27.5874 10.46 27.1104 11.013 24.6704 11.975 22.3563 13.316 20.2313 13.577 19.8183 13.501 19.2763 13.137 18.9513L10.569 16.6612 16.661 10.5691 18.95 13.1342C19.275 13.5002 19.817 13.5742 20.229 13.3142 22.352 11.9761 24.666 11.0181 27.109 10.4671 27.587 10.3591 27.916 9.92211 27.888 9.4351L27.692 6.00004 36.308 6.00004 36.112 9.4371C36.084 9.92511 36.413 10.3611 36.89 10.4691 39.331 11.0221 41.645 11.9811 43.766 13.3192 44.176 13.5792 44.72 13.5042 45.045 13.1392L47.339 10.5691 53.431 16.6612 50.867 18.9473C50.503 19.2723 50.427 19.8143 50.688 20.2273 52.028 22.3493 52.988 24.6644 53.542 27.1094 53.649 27.5874 54.119 27.9034 54.574 27.8874L58 27.6924 58 36.3076ZM59.687 25.9064C59.487 25.7184 59.214 25.6184 58.943 25.6354L55.291 25.8434C54.739 23.7524 53.911 21.7543 52.82 19.8853L55.553 17.4482C55.758 17.2652 55.879 17.0062 55.887 16.7312 55.895 16.4562 55.788 16.1892 55.594 15.9952L48.005 8.40608C47.811 8.21107 47.532 8.10707 47.27 8.11407 46.994 8.12207 46.735 8.24208 46.552 8.44708L44.106 11.1871C42.239 10.0981 40.244 9.27109 38.156 8.72008L38.364 5.05602C38.38 4.78201 38.282 4.51301 38.093 4.31301 37.904 4.113 37.642 4 37.366 4L26.634 4C26.358 4 26.096 4.113 25.907 4.31301 25.718 4.51301 25.62 4.78201 25.636 5.05602L25.844 8.71708C23.755 9.26709 21.758 10.0941 19.889 11.1821L17.448 8.44708C17.265 8.24208 17.006 8.12207 16.73 8.11407 16.472 8.10907 16.189 8.21107 15.995 8.40608L8.406 15.9952C8.212 16.1892 8.105 16.4562 8.113 16.7312 8.121 17.0062 8.242 17.2652 8.447 17.4482L11.184 19.8903C10.092 21.7603 9.263 23.7564 8.712 25.8434L5.057 25.6354C4.785 25.6174 4.513 25.7184 4.313 25.9064 4.113 26.0954 4 26.3584 4 26.6334L4 37.3656C4 37.6406 4.113 37.9036 4.313 38.0926 4.513 38.2816 4.786 38.3766 5.057 38.3646L8.702 38.1566C9.252 40.2506 10.079 42.2517 11.171 44.1237L8.447 46.5518C8.242 46.7348 8.121 46.9948 8.113 47.2698 8.105 47.5448 8.212 47.8108 8.406 48.0048L15.995 55.5939C16.189 55.7889 16.469 55.8969 16.73 55.8859 17.006 55.8779 17.266 55.7579 17.448 55.5519L19.878 52.8289C21.752 53.9229 23.753 54.7529 25.844 55.3039L25.636 58.943C25.62 59.218 25.718 59.486 25.907 59.687 26.096 59.887 26.358 60 26.634 60L37.366 60C37.642 60 37.904 59.887 38.093 59.687 38.282 59.486 38.38 59.217 38.364 58.943L38.156 55.3069C40.253 54.7549 42.255 53.9259 44.126 52.8339L46.552 55.5519C46.734 55.7579 46.994 55.8779 47.27 55.8859 47.535 55.8989 47.811 55.7889 48.005 55.5939L55.594 48.0048C55.788 47.8108 55.895 47.5448 55.887 47.2698 55.879 46.9948 55.758 46.7348 55.553 46.5518L52.825 44.1187C53.917 42.2467 54.745 40.2466 55.295 38.1566L58.943 38.3646C59.213 38.3756 59.487 38.2816 59.687 38.0926 59.887 37.9036 60 37.6406 60 37.3656L60 26.6334C60 26.3584 59.887 26.0954 59.687 25.9064L59.687 25.9064Z" id="Amazon-GuardDuty_Icon_64_Squid" class="MsftOfcThm_Text1_Stroke_v2 MsftOfcResponsive_Fill_df526c" stroke="#000000" fill="#DF526C"/></g></svg>