<svg viewBox="0 0 96 96" xmlns="http://www.w3.org/2000/svg" xmlns:xlink="http://www.w3.org/1999/xlink" id="Icons_NormalDistribution_LTR_M" overflow="hidden"><style>
.MsftOfcThm_Accent4_Fill_v2 {
 fill:#00DEFF; 
}
</style>
<g id="Icons"><path d="M82.013 80 16.043 80 16.043 14 14.043 14 14.043 82 82.013 82 82.013 80Z" class="MsftOfcThm_Accent4_Fill_v2" stroke-width="1.0001" fill="#00DEFF"/><rect x="51.042" y="62" width="2" height="4.834" class="MsftOfcThm_Accent4_Fill_v2" stroke-width="1.0001" fill="#00DEFF"/><rect x="51.042" y="53" width="2" height="4.834" class="MsftOfcThm_Accent4_Fill_v2" stroke-width="1.0001" fill="#00DEFF"/><rect x="51.042" y="44" width="2" height="4.834" class="MsftOfcThm_Accent4_Fill_v2" stroke-width="1.0001" fill="#00DEFF"/><rect x="51.042" y="35" width="2" height="4.834" class="MsftOfcThm_Accent4_Fill_v2" stroke-width="1.0001" fill="#00DEFF"/><path d="M64.209 44.315C62.26 25.582 57.21 23 52.042 23 46.874 23 41.824 25.582 39.877 44.315 38.17 60.708 32.651 68.309 21.977 68.96L22.099 70.96C33.941 70.237 40.037 62.084 41.864 44.525 43.9 25 49.2 25 52.042 25 54.884 25 60.189 25 62.219 44.522 64.043 62.043 70.137 70.193 81.979 70.949L82.106 68.949C71.431 68.272 65.911 60.673 64.209 44.315Z" class="MsftOfcThm_Accent4_Fill_v2" stroke-width="1.0001" fill="#00DEFF"/></g></svg>