<svg width="64" height="64" viewBox="0 0 64 64" xmlns="http://www.w3.org/2000/svg" xmlns:xlink="http://www.w3.org/1999/xlink" overflow="hidden"><style>
.MsftOfcResponsive_Fill_df526c {
 fill:#DF526C; 
}
.MsftOfcThm_Text1_Stroke_v2 {
 stroke:#000000; 
}
</style>
<g id="Icon-Service/64/Amazon-CloudWatch" fill="none" fill-rule="evenodd"><path d="M47.0592 38.7774C47.0592 34.868 43.8576 31.6876 39.9221 31.6876 35.9866 31.6876 32.7859 34.868 32.7859 38.7774 32.7859 42.6867 35.9866 45.8671 39.9221 45.8671 43.8576 45.8671 47.0592 42.6867 47.0592 38.7774M49.0697 38.7774C49.0697 43.7881 44.9663 47.8642 39.9221 47.8642 34.8788 47.8642 30.7754 43.7881 30.7754 38.7774 30.7754 33.7666 34.8788 29.6905 39.9221 29.6905 44.9663 29.6905 49.0697 33.7666 49.0697 38.7774M57.5097 52.4735 50.5012 46.2026C49.9352 46.9945 49.2808 47.7174 48.554 48.3635L55.5525 54.6334C56.1496 55.1687 57.0784 55.1187 57.6182 54.5256 58.155 53.9324 58.1068 53.0108 57.5097 52.4735M39.9221 49.6616C45.9645 49.6616 50.8801 44.7787 50.8801 38.7774 50.8801 32.7751 45.9645 27.8931 39.9221 27.8931 33.8806 27.8931 28.965 32.7751 28.965 38.7774 28.965 44.7787 33.8806 49.6616 39.9221 49.6616M59.112 55.8626C58.4264 56.6166 57.4785 57 56.5285 57 55.7002 57 54.8699 56.7084 54.2075 56.1173L46.9306 49.5987C44.907 50.8968 42.5055 51.6587 39.9221 51.6587 32.7718 51.6587 26.9545 45.8801 26.9545 38.7774 26.9545 31.6747 32.7718 25.896 39.9221 25.896 47.0733 25.896 52.8906 31.6747 52.8906 38.7774 52.8906 40.8154 52.399 42.7366 51.5466 44.4512L58.8557 50.9907C60.2751 52.2659 60.3896 54.4497 59.112 55.8626M13.2803 21.3925C13.2803 21.9118 13.3125 22.429 13.3738 22.9293 13.409 23.2139 13.3205 23.4985 13.1295 23.7132 12.9778 23.8839 12.7737 23.9968 12.5505 24.0347 10.0787 24.6688 6.01047 26.588 6.01047 32.3457 6.01047 36.6934 8.42404 39.0929 10.4496 40.3411 11.1412 40.7745 11.9594 41.0051 12.8229 41.0141L24.9451 41.0251 24.9431 43.0222 12.8119 43.0112C11.5664 42.9983 10.3842 42.6608 9.38404 42.0347 7.37658 40.7974 4 37.8897 4 32.3457 4 25.6623 8.59995 23.1919 11.3 22.3192 11.2799 22.0116 11.2699 21.7021 11.2699 21.3925 11.2699 15.9324 14.9983 10.2696 19.942 8.22159 25.7241 5.81507 31.85 7.00835 36.3263 11.411 37.7136 12.775 38.8545 14.4316 39.7301 16.3478 40.9062 15.3802 42.3557 14.846 43.8837 14.846 46.8863 14.846 50.2659 17.1097 50.8681 22.0606 53.6797 22.7046 59.6206 24.9554 59.6206 32.4226 59.6206 35.4043 58.6797 37.8667 56.8231 39.742L55.3896 38.341C56.8633 36.8532 57.6102 34.862 57.6102 32.4226 57.6102 25.891 52.1055 24.2664 49.7372 23.8719 49.4678 23.827 49.2295 23.6752 49.0757 23.4515 48.926 23.2359 48.8687 22.9712 48.9139 22.7146 48.5852 18.6605 46.1606 16.8431 43.8837 16.8431 42.4472 16.8431 41.1002 17.5381 40.1874 18.7504 39.9653 19.0439 39.6044 19.1937 39.2345 19.1398 38.8696 19.0859 38.563 18.8362 38.4373 18.4917 37.614 16.226 36.4279 14.3208 34.912 12.8309 31.0328 9.01544 25.7281 7.98094 20.7171 10.0649 16.5463 11.7924 13.2803 16.7672 13.2803 21.3925" id="Amazon-CloudWatch_Icon_64_Squid" class="MsftOfcThm_Text1_Stroke_v2 MsftOfcResponsive_Fill_df526c" stroke="#000000" fill="#DF526C"/></g></svg>