<svg width="64" height="64" viewBox="0 0 64 64" xmlns="http://www.w3.org/2000/svg" xmlns:xlink="http://www.w3.org/1999/xlink" overflow="hidden"><g id="Icon-Service/64/Amazon-Virtual-Private-Cloud" fill="none" fill-rule="evenodd"><path d="M53 33.3717 47.5 31.1717 47.5 51.1227C49.106 50.9627 50.401 50.4347 51.321 49.5007 53.021 47.7727 53.001 45.2397 53 45.2147L53 33.3717ZM45.5 51.1357 45.5 31.1717 40 33.3717 40 45.1947C40.007 45.4017 40.234 50.5517 45.5 51.1357L45.5 51.1357ZM55 45.1947C55.003 45.3077 55.053 48.5417 52.765 50.8847 51.269 52.4177 49.16 53.1947 46.5 53.1947 39.927 53.1947 38.065 47.9767 38 45.2187L38 32.6947C38 32.2857 38.249 31.9177 38.629 31.7657L46.129 28.7657C46.367 28.6707 46.633 28.6707 46.871 28.7657L54.371 31.7657C54.751 31.9177 55 32.2857 55 32.6947L55 45.1947ZM58.001 43.2287 58 29.8717 46.5 25.2717 35 29.8717 35 43.1947C34.998 43.2857 34.865 49.4227 38.534 53.1987 40.466 55.1867 43.146 56.1947 46.5 56.1947 49.877 56.1947 52.57 55.1797 54.504 53.1787 58.168 49.3867 58.003 43.2897 58.001 43.2287L58.001 43.2287ZM55.942 54.5677C53.617 56.9747 50.44 58.1947 46.5 58.1947 42.579 58.1947 39.413 56.9787 37.09 54.5807 32.831 50.1877 32.991 43.4477 33 43.1637L33 29.1947C33 28.7857 33.249 28.4177 33.629 28.2657L46.129 23.2657C46.367 23.1707 46.633 23.1707 46.871 23.2657L59.371 28.2657C59.751 28.4177 60 28.7857 60 29.1947L60 43.1947C60.009 43.4447 60.189 50.1727 55.942 54.5677L55.942 54.5677ZM15.055 39.1947 30 39.1947 30 41.1947 15.055 41.1947C8.977 41.1947 4.337 37.1427 4.024 31.5597 4.002 31.3317 4 31.0657 4 30.7997 4 23.9307 8.803 21.4017 11.604 20.5117 11.584 20.1907 11.574 19.8657 11.574 19.5387 11.574 14.0857 15.464 8.3807 20.621 6.2687 26.677 3.7887 33.062 4.9897 37.695 9.4757 39.256 10.9967 40.446 12.6207 41.307 14.4097 42.513 13.3747 43.969 12.8187 45.529 12.8187 48.834 12.8187 52.33 15.4127 52.931 20.3817 55.114 20.9317 57.854 22.0997 59.788 24.5797L58.212 25.8097C56.43 23.5237 53.741 22.5717 51.8 22.1737 51.355 22.0837 51.028 21.7057 51.002 21.2537 50.741 16.8327 47.982 14.8187 45.529 14.8187 44.067 14.8187 42.771 15.5087 41.78 16.8137 41.559 17.1057 41.199 17.2567 40.835 17.1987 40.474 17.1437 40.17 16.8967 40.045 16.5537 39.278 14.4637 38.054 12.6177 36.302 10.9107 32.258 6.9967 26.676 5.9517 21.379 8.1197 16.93 9.9417 13.574 14.8507 13.574 19.5387 13.574 20.0797 13.605 20.6147 13.668 21.1277 13.729 21.6287 13.405 22.0967 12.915 22.2187 10.333 22.8577 6 24.8237 6 30.7997 6 31.0017 5.998 31.2047 6.018 31.4077 6.272 35.9357 10.072 39.1947 15.055 39.1947L15.055 39.1947Z" id="Amazon-Virtual-Private-Cloud_Icon_64_Squid" fill="#92D050"/></g></svg>