<svg viewBox="0 0 360 360" xmlns="http://www.w3.org/2000/svg" xmlns:xlink="http://www.w3.org/1999/xlink" id="Layer_1" xml:space="preserve" overflow="hidden"><g><path d="M178.84 138.93 202.3 125.36 202.3 138.93 190.6 145.71 190.6 159.26 178.84 152.49 178.84 152.49Z" fill="#86F5CD" fill-rule="evenodd" clip-rule="evenodd"/><path d="M178.84 111.81 202.3 125.36 178.84 138.93 155.38 125.36Z" fill="#1EEEA2" fill-rule="evenodd" clip-rule="evenodd"/><path d="M178.84 138.93 155.38 125.36 155.38 138.93 167.14 145.71 167.14 159.26 178.84 152.49Z" fill="#CB7371" fill-rule="evenodd" clip-rule="evenodd"/><path d="M214.06 159.26 237.52 145.71 237.52 214.28 214.06 227.85Z" fill="#00DEFF" fill-rule="evenodd" clip-rule="evenodd"/><path d="M214.06 132.15 237.52 145.71 214.06 159.26 190.6 145.71Z" fill="#00AFEF" fill-rule="evenodd" clip-rule="evenodd"/><path d="M214.06 159.26 190.6 145.71 190.6 159.26 202.3 166.04 202.3 221.07 214.06 227.85Z" fill="#008FD1" fill-rule="evenodd" clip-rule="evenodd"/><path d="M178.84 179.6 202.3 166.04 202.3 234.62 178.84 248.18Z" fill="#5B49D9" fill-rule="evenodd" clip-rule="evenodd"/><path d="M143.62 159.26 167.14 145.71 167.14 159.26 155.38 166.04 155.38 221.07 143.5 227.9Z" fill="#BFE13C" fill-rule="evenodd" clip-rule="evenodd"/><path d="M143.62 132.15 167.14 145.71 143.62 159.26 120.16 145.71Z" fill="#F0F583" fill-rule="evenodd" clip-rule="evenodd"/><path d="M143.62 159.26 120.16 145.71 120.16 214.28 143.62 227.85Z" fill="#E3EE16" fill-rule="evenodd" clip-rule="evenodd"/><path d="M178.84 179.6 155.38 166.04 155.38 234.62 178.84 248.18Z" fill="#CB7371" fill-rule="evenodd" clip-rule="evenodd"/><path d="M178.84 179.6 155.38 166.04 155.38 234.62 178.84 248.18Z" fill="#CB7371" fill-rule="evenodd" clip-rule="evenodd"/><path d="M178.84 179.6 155.38 166.04 155.38 234.62 178.84 248.18Z" fill="#CB7371" fill-rule="evenodd" clip-rule="evenodd"/><path d="M178.84 179.6 155.38 166.04 155.38 234.62 178.84 248.18Z" fill="#B7A4FE" fill-rule="evenodd" clip-rule="evenodd"/><path d="M178.84 138.93 155.38 125.36 155.38 138.93 167.14 145.71 167.14 159.26 178.84 152.49Z" fill="#1DD6A4" fill-rule="evenodd" clip-rule="evenodd"/><path d="M178.84 152.49 202.3 166.04 178.84 179.6 155.38 166.04Z" fill="#9F8CF5" fill-rule="evenodd" clip-rule="evenodd"/></g></svg>