<svg width="64" height="64" viewBox="0 0 64 64" xmlns="http://www.w3.org/2000/svg" xmlns:xlink="http://www.w3.org/1999/xlink" overflow="hidden"><style>
.MsftOfcResponsive_Fill_df526c {
 fill:#DF526C; 
}
.MsftOfcThm_Text1_Stroke_v2 {
 stroke:#000000; 
}
</style>
<g id="Icon-Service/64/AWS-Cloud-Trail" fill="none" fill-rule="evenodd"><path d="M17 42.9961 21 42.9961 21 40.9941 17 40.9941 17 42.9961ZM51.971 28.1634C51.746 25.1264 50.261 22.8902 47.902 22.1004 46.003 21.4668 43.911 21.9143 42.318 23.2125 41.352 21.3077 39.9 19.4418 38.702 18.2597 34.406 14.0195 29.668 12.9384 24.616 15.0455 20.106 16.9223 16 23.0874 16 27.9812L16 28.1714C13.293 29.0863 11.109 31.0743 10.074 33.6088L11.926 34.3655C13.245 31.1354 16.332 30.1224 17.247 29.8891 17.69 29.776 18 29.3766 18 28.9192L18 27.9812C18 23.9363 21.657 18.4448 25.385 16.8933 29.68 15.1025 33.578 16.0114 37.298 19.6851 38.88 21.2456 40.427 23.5609 41.06 25.3176 41.184 25.664 41.488 25.9132 41.852 25.9683 42.212 26.0233 42.577 25.8742 42.799 25.5799 43.904 24.1104 45.696 23.4738 47.269 23.9993 49.004 24.5809 50 26.3967 50 28.9822 50 29.4717 50.354 29.8891 50.836 29.9692 51.569 30.0913 58 31.3516 58 37.9911 58 44.8679 51.281 44.996 51 44.998L28 44.998 28 47 51.002 47C54.114 46.994 60 45.1041 60 37.9911 60 31.784 55.279 28.9892 51.971 28.1634L51.971 28.1634ZM23 42.9961 37 42.9961 37 40.9941 23 40.9941 23 42.9961ZM19 47 25 47 25 44.998 19 44.998 19 47ZM4 47 7 47 7 44.998 4 44.998 4 47ZM7 38.9921 16 38.9921 16 36.9901 7 36.9901 7 38.9921ZM5 42.9961 15 42.9961 15 40.9941 5 40.9941 5 42.9961ZM19 38.9921 26 38.9921 26 36.9901 19 36.9901 19 38.9921ZM9 47 17 47 17 44.998 9 44.998 9 47Z" id="AWS-Cloud-Trail_Icon_64_Squid" class="MsftOfcThm_Text1_Stroke_v2 MsftOfcResponsive_Fill_df526c" stroke="#000000" fill="#DF526C"/></g></svg>